<?xml version="1.0" encoding="UTF-8" standalone="no"?>
<svg
   xmlns:dc="http://purl.org/dc/elements/1.1/"
   xmlns:cc="http://creativecommons.org/ns#"
   xmlns:rdf="http://www.w3.org/1999/02/22-rdf-syntax-ns#"
   xmlns:svg="http://www.w3.org/2000/svg"
   xmlns="http://www.w3.org/2000/svg"
   xmlns:sodipodi="http://sodipodi.sourceforge.net/DTD/sodipodi-0.dtd"
   xmlns:inkscape="http://www.inkscape.org/namespaces/inkscape"
   viewBox="0 0 809.05 993.64"
   width="240"
   version="1.1"
   id="svg200"
   sodipodi:docname="logo.svg"
   inkscape:version="0.92.4 (unknown)">
  <metadata
     id="metadata204">
    <rdf:RDF>
      <cc:Work
         rdf:about="">
        <dc:format>image/svg+xml</dc:format>
        <dc:type
           rdf:resource="http://purl.org/dc/dcmitype/StillImage" />
        <dc:title>joern_large_logo_clean_up_v01_ph01_04</dc:title>
      </cc:Work>
    </rdf:RDF>
  </metadata>
  <sodipodi:namedview
     pagecolor="#ffffff"
     bordercolor="#666666"
     borderopacity="1"
     objecttolerance="10"
     gridtolerance="10"
     guidetolerance="10"
     inkscape:pageopacity="0"
     inkscape:pageshadow="2"
     inkscape:window-width="3440"
     inkscape:window-height="1403"
     id="namedview202"
     showgrid="false"
     inkscape:zoom="0.67178132"
     inkscape:cx="-97.054974"
     inkscape:cy="279.25076"
     inkscape:window-x="1920"
     inkscape:window-y="0"
     inkscape:window-maximized="1"
     inkscape:current-layer="layer2" />
  <defs
     id="defs4">
    <style
       id="style2">.cls-1,.cls-11,.cls-12,.cls-2,.cls-3,.cls-4,.cls-5,.cls-6{fill:none;}.cls-1,.cls-11,.cls-12,.cls-2,.cls-3,.cls-4,.cls-6{stroke:#000;}.cls-1,.cls-12,.cls-2,.cls-3,.cls-4,.cls-5,.cls-6,.cls-7,.cls-8{stroke-miterlimit:10;}.cls-1{stroke-width:5px;}.cls-11,.cls-12,.cls-2{stroke-width:4px;}.cls-3{stroke-width:3px;}.cls-4{stroke-width:2px;}.cls-5,.cls-7,.cls-8{stroke:#000;}.cls-6{stroke-width:1.5px;}.cls-10,.cls-7{fill:#39ff14;}.cls-9{fill:#fff;}.cls-11{stroke-linejoin:bevel;}.cls-12{font-size:258.07px;font-family:PlacktheHanet, Plack the Hanet;}</style>
  </defs>
  <title
     id="title6">joern_large_logo_clean_up_v01_ph01_04</title>
  <g
     id="emblim">
    <g
       id="head_lines_01"
       style="stroke:#00f000;stroke-opacity:1">
      <line
         class="cls-1"
         x1="509.86"
         y1="310.45"
         x2="566.4"
         y2="398.32"
         id="line8"
         style="stroke:#00f000;stroke-opacity:1" />
      <line
         class="cls-1"
         x1="636.21"
         y1="358.23"
         x2="588.1"
         y2="401.46"
         id="line10"
         style="stroke:#00f000;stroke-opacity:1" />
      <line
         class="cls-1"
         x1="648.76"
         y1="359.23"
         x2="681.23"
         y2="451.04"
         id="line12"
         style="stroke:#00f000;stroke-opacity:1" />
      <line
         class="cls-1"
         x1="590.24"
         y1="424.69"
         x2="663.83"
         y2="458.61"
         id="line14"
         style="stroke:#00f000;stroke-opacity:1" />
      <line
         class="cls-1"
         x1="695.59"
         y1="461.73"
         x2="763.12"
         y2="419.38"
         id="line16"
         style="stroke:#00f000;stroke-opacity:1" />
      <line
         class="cls-1"
         x1="661.38"
         y1="347.23"
         x2="761.99"
         y2="399.26"
         id="line18"
         style="stroke:#00f000;stroke-opacity:1" />
      <line
         class="cls-1"
         x1="421.97"
         y1="528.12"
         x2="664.22"
         y2="478.34"
         id="line20"
         style="stroke:#00f000;stroke-opacity:1" />
      <line
         class="cls-1"
         x1="611.87"
         y1="271.38"
         x2="639.81"
         y2="324.63"
         id="line22"
         style="stroke:#00f000;stroke-opacity:1" />
      <line
         class="cls-1"
         x1="415.61"
         y1="542.03"
         x2="444.83"
         y2="600.71"
         id="line24"
         style="stroke:#00f000;stroke-opacity:1" />
      <line
         class="cls-1"
         x1="418.43"
         y1="648.09"
         x2="438.7"
         y2="629"
         id="line26"
         style="stroke:#00f000;stroke-opacity:1" />
      <line
         class="cls-1"
         x1="671.24"
         y1="485.05"
         x2="469.82"
         y2="610.85"
         id="line28"
         style="stroke:#00f000;stroke-opacity:1" />
      <path
         class="cls-1"
         d="M452.4,537.31"
         transform="translate(-50.88 -16.28)"
         id="path30"
         style="stroke:#00f000;stroke-opacity:1" />
      <path
         class="cls-1"
         d="M454.24,330.59"
         transform="translate(-50.88 -16.28)"
         id="path32"
         style="stroke:#00f000;stroke-opacity:1" />
      <line
         class="cls-1"
         x1="403.44"
         y1="353.47"
         x2="404.09"
         y2="510.64"
         id="line34"
         style="stroke:#00f000;stroke-opacity:1" />
      <line
         class="cls-1"
         x1="298.36"
         y1="310.45"
         x2="241.81"
         y2="398.32"
         id="line36"
         style="stroke:#00f000;stroke-opacity:1" />
      <line
         class="cls-1"
         x1="172"
         y1="358.23"
         x2="220.12"
         y2="401.46"
         id="line38"
         style="stroke:#00f000;stroke-opacity:1" />
      <line
         class="cls-1"
         x1="159.46"
         y1="359.23"
         x2="126.98"
         y2="451.04"
         id="line40"
         style="stroke:#00f000;stroke-opacity:1" />
      <line
         class="cls-1"
         x1="217.98"
         y1="424.69"
         x2="144.38"
         y2="458.61"
         id="line42"
         style="stroke:#00f000;stroke-opacity:1" />
      <line
         class="cls-1"
         x1="112.63"
         y1="461.73"
         x2="45.09"
         y2="419.38"
         id="line44"
         style="stroke:#00f000;stroke-opacity:1" />
      <line
         class="cls-1"
         x1="146.83"
         y1="347.23"
         x2="46.22"
         y2="399.26"
         id="line46"
         style="stroke:#00f000;stroke-opacity:1" />
      <line
         class="cls-1"
         x1="386.24"
         y1="528.12"
         x2="143.99"
         y2="478.34"
         id="line48"
         style="stroke:#00f000;stroke-opacity:1" />
      <line
         class="cls-1"
         x1="196.34"
         y1="271.38"
         x2="168.4"
         y2="324.63"
         id="line50"
         style="stroke:#00f000;stroke-opacity:1" />
      <line
         class="cls-1"
         x1="392.61"
         y1="542.03"
         x2="363.38"
         y2="600.71"
         id="line52"
         style="stroke:#00f000;stroke-opacity:1" />
      <line
         class="cls-1"
         x1="389.78"
         y1="648.09"
         x2="369.51"
         y2="629"
         id="line54"
         style="stroke:#00f000;stroke-opacity:1" />
      <line
         class="cls-1"
         x1="136.97"
         y1="485.05"
         x2="338.4"
         y2="610.85"
         id="line56"
         style="stroke:#00f000;stroke-opacity:1" />
      <path
         class="cls-1"
         d="M457.58,537.31"
         transform="translate(-50.88 -16.28)"
         id="path58"
         style="stroke:#00f000;stroke-opacity:1" />
      <path
         class="cls-1"
         d="M455.73,330.59"
         transform="translate(-50.88 -16.28)"
         id="path60"
         style="stroke:#00f000;stroke-opacity:1" />
    </g>
    <g
       id="head_circles_01">
      <circle
         class="cls-1"
         cx="679.59"
         cy="468.69"
         r="18.08"
         id="circle63"
         style="stroke:#00f000;stroke-opacity:1" />
      <circle
         class="cls-1"
         cx="575.21"
         cy="414.21"
         r="18.08"
         id="circle65"
         style="stroke:#00f000;stroke-opacity:1" />
      <circle
         class="cls-1"
         cx="644.56"
         cy="342.16"
         r="18.08"
         id="circle67"
         style="stroke:#00f000;stroke-opacity:1" />
      <circle
         class="cls-1"
         cx="777.49"
         cy="409.12"
         r="18.08"
         id="circle69"
         style="stroke:#00f000;stroke-opacity:1" />
      <circle
         class="cls-1"
         cx="403.67"
         cy="657.3"
         r="18.08"
         id="circle71"
         style="stroke:#00f000;stroke-opacity:1" />
      <circle
         class="cls-1"
         cx="452.86"
         cy="616.71"
         r="18.08"
         id="circle73"
         style="stroke:#00f000;stroke-opacity:1" />
      <circle
         class="cls-1"
         cx="127.46"
         cy="468.69"
         r="18.08"
         id="circle75"
         style="stroke:#00f000;stroke-opacity:1" />
      <circle
         class="cls-1"
         cx="231.85"
         cy="414.21"
         r="18.08"
         id="circle77"
         style="stroke:#00f000;stroke-opacity:1" />
      <circle
         class="cls-1"
         cx="162.49"
         cy="342.16"
         r="18.08"
         id="circle79"
         style="stroke:#00f000;stroke-opacity:1" />
      <circle
         class="cls-1"
         cx="29.57"
         cy="409.12"
         r="18.08"
         id="circle81"
         style="stroke:#00f000;stroke-opacity:1" />
      <circle
         class="cls-1"
         cx="403.39"
         cy="528.1"
         r="18.08"
         id="circle83"
         style="stroke:#00f000;stroke-opacity:1" />
      <circle
         class="cls-1"
         cx="354.19"
         cy="616.71"
         r="18.08"
         id="circle85"
         style="stroke:#00f000;stroke-opacity:1" />
    </g>
    <polygon
       class="cls-2"
       points="560.65 157.04 403.46 197.43 244.66 156.41 75.19 223.72 403.53 352.76 731.86 223.72 560.65 157.04"
       id="polygon88"
       style="stroke:#00f000;stroke-opacity:1" />
    <g
       id="hp_01_lines"
       style="stroke:#00f000;stroke-opacity:1">
      <line
         class="cls-2"
         x1="495.62"
         y1="255.4"
         x2="502.43"
         y2="287.61"
         id="line90"
         style="stroke:#00f000;stroke-opacity:1" />
      <line
         class="cls-2"
         x1="486.53"
         y1="252.45"
         x2="414.29"
         y2="302.33"
         id="line92"
         style="stroke:#00f000;stroke-opacity:1" />
      <line
         class="cls-2"
         x1="581.39"
         y1="210.58"
         x2="601.2"
         y2="243.81"
         id="line94"
         style="stroke:#00f000;stroke-opacity:1" />
      <line
         class="cls-2"
         x1="490.22"
         y1="228.37"
         x2="480.51"
         y2="177.23"
         id="line96"
         style="stroke:#00f000;stroke-opacity:1" />
      <line
         class="cls-2"
         x1="562.46"
         y1="191.2"
         x2="515.6"
         y2="167.92"
         id="line98"
         style="stroke:#00f000;stroke-opacity:1" />
      <line
         class="cls-2"
         x1="312.81"
         y1="255.4"
         x2="306.01"
         y2="287.61"
         id="line100"
         style="stroke:#00f000;stroke-opacity:1" />
      <line
         class="cls-2"
         x1="321.91"
         y1="252.45"
         x2="394.15"
         y2="302.33"
         id="line102"
         style="stroke:#00f000;stroke-opacity:1" />
      <line
         class="cls-2"
         x1="227.04"
         y1="210.58"
         x2="207.24"
         y2="243.81"
         id="line104"
         style="stroke:#00f000;stroke-opacity:1" />
      <line
         class="cls-2"
         x1="318.22"
         y1="228.37"
         x2="327.92"
         y2="177.23"
         id="line106"
         style="stroke:#00f000;stroke-opacity:1" />
      <line
         class="cls-2"
         x1="245.97"
         y1="191.2"
         x2="292.84"
         y2="167.92"
         id="line108"
         style="stroke:#00f000;stroke-opacity:1" />
    </g>
    <g
       id="hp_02_circles"
       style="stroke:#00f000;stroke-opacity:1">
      <circle
         class="cls-2"
         cx="493.86"
         cy="241"
         r="13.28"
         id="circle111"
         style="stroke:#00f000;stroke-opacity:1" />
      <circle
         class="cls-2"
         cx="572.46"
         cy="200.06"
         r="13.28"
         id="circle113"
         style="stroke:#00f000;stroke-opacity:1" />
      <circle
         class="cls-2"
         cx="313.2"
         cy="241"
         r="13.28"
         id="circle115"
         style="stroke:#00f000;stroke-opacity:1" />
      <circle
         class="cls-2"
         cx="234.6"
         cy="200.06"
         r="13.28"
         id="circle117"
         style="stroke:#00f000;stroke-opacity:1" />
      <circle
         class="cls-2"
         cx="403.39"
         cy="309.08"
         r="13.28"
         id="circle119"
         style="stroke:#00f000;stroke-opacity:1" />
    </g>
    <polygon
       id="hat_plane_02"
       class="cls-3"
       points="643.71 135.27 403.53 196.33 163.35 135.27 303.64 98.5 403.52 124.09 500.93 99.05 643.71 135.27"
       style="stroke:#00f000;stroke-opacity:1" />
    <g
       id="hp_02_lines"
       style="stroke:#00f000;stroke-opacity:1">
      <line
         class="cls-3"
         x1="471.72"
         y1="116.52"
         x2="470.51"
         y2="106.38"
         id="line123"
         style="stroke:#00f000;stroke-opacity:1" />
      <line
         class="cls-3"
         x1="477.52"
         y1="160.26"
         x2="474.29"
         y2="136.93"
         id="line125"
         style="stroke:#00f000;stroke-opacity:1" />
      <line
         class="cls-3"
         x1="335.29"
         y1="116.29"
         x2="336.02"
         y2="107.11"
         id="line127"
         style="stroke:#00f000;stroke-opacity:1" />
      <line
         class="cls-3"
         x1="329.54"
         y1="160.26"
         x2="331.82"
         y2="136.08"
         id="line129"
         style="stroke:#00f000;stroke-opacity:1" />
    </g>
    <g
       id="hp_02_circle"
       style="stroke:#00f000;stroke-opacity:1">
      <circle
         class="cls-3"
         cx="473.23"
         cy="126.24"
         r="9.88"
         id="circle132"
         style="stroke:#00f000;stroke-opacity:1" />
      <circle
         class="cls-3"
         cx="333.82"
         cy="126.24"
         r="9.88"
         id="circle134"
         style="stroke:#00f000;stroke-opacity:1" />
    </g>
    <polygon
       id="hat_plane_03"
       class="cls-4"
       points="572.44 80.43 403.53 123.37 234.62 80.43 350.31 51.37 404.26 65.57 456.77 51.16 572.44 80.43"
       style="stroke:#00f000;stroke-opacity:1" />
    <g
       id="hp_03_line"
       style="stroke:#00f000;stroke-opacity:1">
      <path
         class="cls-5"
         d="M488.84,43.93"
         transform="translate(-50.88 -16.28)"
         id="path138"
         style="stroke:#00f000;stroke-opacity:1" />
      <path
         class="cls-5"
         d="M439.37,103.52"
         transform="translate(-50.88 -16.28)"
         id="path140"
         style="stroke:#00f000;stroke-opacity:1" />
      <line
         class="cls-4"
         x1="469.53"
         y1="94.65"
         x2="466.92"
         y2="77.07"
         id="line142"
         style="stroke:#00f000;stroke-opacity:1" />
      <line
         class="cls-4"
         x1="465.25"
         y1="61.54"
         x2="463.27"
         y2="49.36"
         id="line144"
         style="stroke:#00f000;stroke-opacity:1" />
      <line
         class="cls-4"
         x1="337.53"
         y1="94.65"
         x2="340.06"
         y2="76.92"
         id="line146"
         style="stroke:#00f000;stroke-opacity:1" />
      <line
         class="cls-4"
         x1="342.19"
         y1="61.69"
         x2="344.02"
         y2="49.05"
         id="line148"
         style="stroke:#00f000;stroke-opacity:1" />
      <path
         class="cls-5"
         d="M431.59,43.93"
         transform="translate(-50.88 -16.28)"
         id="path150"
         style="stroke:#00f000;stroke-opacity:1" />
      <path
         class="cls-5"
         d="M481.06,103.52"
         transform="translate(-50.88 -16.28)"
         id="path152"
         style="stroke:#00f000;stroke-opacity:1" />
    </g>
    <g
       id="hp_03_dot"
       style="stroke:#00f000;stroke-opacity:1">
      <circle
         class="cls-4"
         cx="518.24"
         cy="85.59"
         r="7.57"
         transform="translate(96.8 441.57) rotate(-54.51)"
         id="circle155"
         style="stroke:#00f000;stroke-opacity:1" />
      <circle
         class="cls-4"
         cx="390.58"
         cy="85.59"
         r="7.57"
         transform="translate(-28.01 226.38) rotate(-35.49)"
         id="circle157"
         style="stroke:#00f000;stroke-opacity:1" />
    </g>
    <polygon
       id="hat_plane-04"
       class="cls-6"
       points="528.38 32.51 403.53 64.25 278.67 32.51 403.53 0.77 528.38 32.51"
       style="stroke:#00f000;stroke-opacity:1" />
    <g
       id="hp_04_line"
       style="stroke:#00f000;stroke-opacity:1">
      <path
         class="cls-5"
         d="M464.83,70.46"
         transform="translate(-50.88 -16.28)"
         id="path161"
         style="stroke:#00f000;stroke-opacity:1" />
      <path
         class="cls-5"
         d="M489.36,44.27"
         transform="translate(-50.88 -16.28)"
         id="path163"
         style="stroke:#00f000;stroke-opacity:1" />
      <line
         class="cls-6"
         x1="462.07"
         y1="39.68"
         x2="460.67"
         y2="33.31"
         id="line165"
         style="stroke:#00f000;stroke-opacity:1" />
      <line
         class="cls-6"
         x1="344.99"
         y1="39.68"
         x2="346.15"
         y2="33.26"
         id="line167"
         style="stroke:#00f000;stroke-opacity:1" />
      <path
         class="cls-5"
         d="M455.61,70.46"
         transform="translate(-50.88 -16.28)"
         id="path169"
         style="stroke:#00f000;stroke-opacity:1" />
      <path
         class="cls-5"
         d="M431.07,44.27"
         transform="translate(-50.88 -16.28)"
         id="path171"
         style="stroke:#00f000;stroke-opacity:1" />
    </g>
    <g
       id="hp_04_dot"
       style="stroke:#00f000;stroke-opacity:1">
      <circle
         class="cls-6"
         cx="458.61"
         cy="27.29"
         r="6.07"
         id="circle174"
         style="stroke:#00f000;stroke-opacity:1" />
      <circle
         class="cls-6"
         cx="348.45"
         cy="27.29"
         r="6.07"
         id="circle176"
         style="stroke:#00f000;stroke-opacity:1" />
    </g>
  </g>
  <g
     id="Sweet_cartoon_eyes"
     style="stroke:#00f000;stroke-opacity:1">
    <circle
       id="eye_white"
       class="cls-7"
       cx="335.47"
       cy="447.7"
       r="46.42"
       style="fill:#55d400;stroke:#00f000;stroke-opacity:1" />
    <circle
       id="pupil"
       class="cls-8"
       cx="339.01"
       cy="429.86"
       r="19.67"
       style="stroke:#00f000;stroke-opacity:1" />
    <circle
       id="eye_reflection"
       class="cls-9"
       cx="347.99"
       cy="438.59"
       r="2.75"
       style="stroke:#00f000;stroke-opacity:1" />
    <circle
       id="eye_white-2"
       data-name="eye_white"
       class="cls-7"
       cx="471.59"
       cy="446.13"
       r="46.42"
       style="fill:#55d400;stroke:#00f000;stroke-opacity:1" />
    <circle
       id="pupil-2"
       data-name="pupil"
       class="cls-8"
       cx="475.13"
       cy="431.44"
       r="19.67"
       style="stroke:#00f000;stroke-opacity:1" />
    <circle
       id="eye_reflection-2"
       data-name="eye_reflection"
       class="cls-9"
       cx="484.11"
       cy="440.16"
       r="2.75"
       style="stroke:#00f000;stroke-opacity:1" />
  </g>
  <g
     id="font"
     style="stroke:#00f000;stroke-opacity:1">
    <g
       id="j"
       style="fill:#00f600;stroke:none;stroke-opacity:1;fill-opacity:1">
      <path
         class="cls-10"
         d="M198.41,800.6l0,120.11L150,969.25l-47-.19L54.9,920.71l.17-19.13H97.39l-.14,8.28,1.2,2.92L111,925.14l2.8,1.15,25.19,0,2.75-1.1,13-12.3L156,910l-.11-109.17,42.52-.24m4-4-50.52.28L152,910l-13,12.3-25.19,0-12.59-12.35.21-12.35H51.1l-.22,24.77,50.52,50.7,50.28.2,50.69-50.89,0-125.78Z"
         transform="translate(-50.88 -16.28)"
         id="path187"
         style="fill:#00f600;stroke:none;stroke-opacity:1;fill-opacity:1" />
    </g>
    <polygon
       id="n"
       class="cls-11"
       points="655.51 830.57 705.88 780.2 756.89 780.2 806.63 830.15 807.05 931.12 781.66 956.51 756.26 956.72 756.68 843.17 743.66 830.36 718.69 830.36 706.09 842.75 706.09 956.51 680.7 956.72 655.09 931.53 655.51 830.57"
       style="stroke:#00f000;stroke-opacity:1" />
    <g
       aria-label="o"
       transform="translate(162.29 956.6)"
       style="font-size:258.07000732px;font-family:PlacktheHanet, 'Plack the Hanet';fill:none;stroke:#00f000;stroke-width:4px;stroke-miterlimit:10;stroke-opacity:1"
       id="text191">
      <path
         d="m 0,-126.01075 50.404298,-50.40429 H 100.8086 l 50.40429,50.40429 v 75.606452 L 100.8086,0 H 50.404298 L 0,-50.404298 Z m 63.005373,0 -12.601075,12.60108 v 50.404297 l 12.601075,12.601075 H 88.207522 L 100.8086,-63.005373 v -50.404297 l -12.601078,-12.60108 z"
         style="font-size:258.07000732px;font-family:PlacktheHanet, 'Plack the Hanet';fill:none;stroke:#00f000;stroke-width:4px;stroke-miterlimit:10;stroke-opacity:1"
         id="path922" />
    </g>
    <g
       id="r"
       style="fill:#00f600;stroke:none;stroke-opacity:1;fill-opacity:1">
      <path
         class="cls-10"
         d="M643.54,796.17,693,846.52l1.15,38-51.79-.29V859.46L630,846.23l-25.32.29-12.08,12.37V972.82l-25.42-.14-25.39-25.26.46-100.61,50.35-50.35,50.92-.29m0-4h0l-50.92.29a4,4,0,0,0-2.81,1.17L539.44,844a4,4,0,0,0-1.17,2.81l-.46,100.61a4,4,0,0,0,1.18,2.85l25.39,25.26a4,4,0,0,0,2.8,1.16l25.42.14h0a4,4,0,0,0,4-4V860.52l9.79-10,21.9-.25L638.39,861v23.16a4,4,0,0,0,4,4l51.79.29h0a4,4,0,0,0,4-4.12l-1.15-38a4,4,0,0,0-1.15-2.68l-49.49-50.35a4,4,0,0,0-2.85-1.2Z"
         transform="translate(-50.88 -16.28)"
         id="path193"
         style="fill:#00f600;stroke:none;stroke-opacity:1;fill-opacity:1" />
    </g>
    <g
       id="e"
       style="fill:#00f600;stroke:none;stroke-opacity:1;fill-opacity:1">
      <path
         class="cls-10"
         d="M430.69,797.7l73.67.3,25.44,24.26-.59,23.08H441.34l-14.5,15.38,77.51.3,1,47.93-78.17-.59,14.5,15.38h87.57l.3,23.67-24.26,24-74.56.3L380.39,922l.3-74.85,50-49.41m-1.64-4-1.18,1.16-50,49.41-1.18,1.17v1.66l-.3,74.85v1.68l1.19,1.18,50.3,49.7,1.18,1.16h1.65l74.56-.3h1.63l1.16-1.15,24.26-24,1.21-1.2,0-1.7-.3-23.67,0-4h-89.8l-6.89-7.31,68.81.52,4.11,0-.08-4.11-1-47.93-.08-3.91h-3.91l-68.3-.26,7-7.42h90l.1-3.9.59-23.08,0-1.77-1.28-1.22L507.11,795.1,506,794h-1.59l-73.67-.3Z"
         transform="translate(-50.88 -16.28)"
         id="path196"
         style="fill:#00f600;stroke:none;stroke-opacity:1;fill-opacity:1" />
    </g>
  </g>
  <g
     inkscape:groupmode="layer"
     id="layer1"
     inkscape:label="Layer 1">
    <rect
       style="opacity:1;fill:#000000;fill-opacity:1;stroke:none;stroke-width:1.75748026;stroke-miterlimit:4;stroke-dasharray:5.27244094, 1.75748031;stroke-dashoffset:0;stroke-opacity:1"
       id="rect926"
       width="957.15674"
       height="1210.2152"
       x="-991.39404"
       y="-55.808643"
       rx="10.7143"
       ry="11.4286" />
  </g>
  <g
     inkscape:groupmode="layer"
     id="layer2"
     inkscape:label="Layer 2" />
</svg>
