<svg xmlns="http://www.w3.org/2000/svg" xmlns:xlink="http://www.w3.org/1999/xlink" preserveAspectRatio="xMidYMid" width="220" height="82" viewBox="0 0 220 82">
  <defs>
    <style>
      .cls-1 {
        fill: #bc213f;
      }

      .cls-2 {
        fill: #fff;
        fill-rule: evenodd;
      }
    </style>
  </defs>
  <rect width="220" height="82" class="cls-1"/>
  <path d="M194.433,58.937 C194.532,59.237 194.582,59.438 194.582,59.806 C194.582,61.594 193.221,62.798 191.080,62.798 C190.782,62.798 190.482,62.781 190.085,62.664 C189.819,62.931 189.603,63.098 189.603,63.433 C189.603,63.717 189.852,63.801 190.017,63.801 C190.847,63.801 191.562,63.717 192.391,63.717 C194.183,63.717 195.296,63.967 195.296,65.723 C195.296,67.912 192.939,69.016 190.764,69.016 C189.005,69.016 187.512,68.698 187.512,67.194 C187.512,66.090 188.325,65.655 188.856,65.355 C188.425,65.221 187.711,64.887 187.711,64.018 C187.711,63.199 188.607,62.798 189.221,62.280 C188.242,61.728 187.645,61.142 187.645,59.806 C187.645,58.151 189.055,56.931 191.097,56.931 C192.142,56.931 192.640,57.199 193.105,57.483 C193.486,57.483 194.681,57.483 195.678,57.215 L195.678,58.937 L194.433,58.937 ZM190.964,67.461 C192.524,67.461 193.254,66.609 193.254,65.973 C193.254,65.539 193.204,65.455 192.192,65.455 C191.395,65.455 190.964,65.523 190.200,65.539 C189.735,65.873 189.388,66.207 189.388,66.642 C189.388,67.277 189.885,67.461 190.964,67.461 ZM191.129,58.452 C190.599,58.452 190.234,58.636 190.150,58.719 C190.067,58.803 189.769,59.237 189.769,59.822 C189.769,60.642 190.267,61.226 191.129,61.226 C191.578,61.226 192.009,61.010 192.076,60.959 C192.159,60.876 192.457,60.558 192.457,59.822 C192.457,59.020 192.092,58.452 191.129,58.452 ZM184.690,55.694 C184.060,55.694 183.512,55.142 183.512,54.474 C183.512,53.806 184.060,53.270 184.690,53.270 C185.338,53.270 185.852,53.788 185.852,54.458 C185.852,55.126 185.338,55.694 184.690,55.694 ZM178.815,63.199 C179.612,63.199 180.491,62.864 181.421,62.096 L181.603,64.068 C180.707,64.603 179.894,64.921 178.416,64.921 C176.308,64.921 174.732,63.416 174.732,60.942 C174.732,58.435 176.259,56.931 178.400,56.931 C180.972,56.931 181.720,58.301 181.720,61.142 L176.856,61.142 C176.906,62.180 177.653,63.199 178.815,63.199 ZM179.910,59.890 C179.844,59.020 179.695,58.435 178.400,58.435 C178.151,58.435 177.620,58.619 177.553,58.669 C177.521,58.703 177.023,59.187 176.923,59.890 L179.910,59.890 ZM174.631,47.092 C173.503,47.092 172.673,46.372 172.673,44.969 L172.673,40.656 L171.578,40.656 L171.578,39.319 L172.673,39.319 L172.673,36.745 L174.649,36.745 L174.649,39.302 L176.291,39.302 L176.291,40.640 L174.649,40.640 L174.649,44.567 C174.649,45.303 174.847,45.336 175.030,45.336 C175.479,45.336 176.059,45.002 176.424,44.785 L176.623,46.456 C175.976,46.824 175.262,47.092 174.631,47.092 ZM173.338,27.540 C174.134,27.540 175.014,27.206 175.943,26.437 L176.126,28.409 C175.230,28.944 174.416,29.261 172.939,29.261 C170.831,29.261 169.254,27.758 169.254,25.283 C169.254,22.776 170.781,21.272 172.923,21.272 C175.495,21.272 176.242,22.643 176.242,25.484 L171.379,25.484 C171.429,26.520 172.175,27.540 173.338,27.540 ZM174.433,24.231 C174.367,23.362 174.217,22.776 172.923,22.776 C172.673,22.776 172.143,22.960 172.076,23.011 C172.043,23.044 171.545,23.529 171.446,24.231 L174.433,24.231 ZM168.657,38.082 C168.059,38.082 167.595,37.581 167.595,36.979 C167.595,36.361 168.026,35.826 168.657,35.826 C169.254,35.826 169.719,36.361 169.719,36.963 C169.719,37.581 169.254,38.082 168.657,38.082 ZM167.462,29.044 L165.454,29.044 C165.488,27.122 165.520,26.721 165.520,25.701 C165.520,23.562 165.454,23.027 164.624,23.027 C164.309,23.027 163.811,23.094 163.678,23.194 C163.562,23.278 163.030,23.679 162.682,24.097 L162.682,29.044 L160.674,29.044 L160.674,16.843 L162.682,16.843 L162.682,22.158 C163.263,21.573 163.927,21.272 164.740,21.272 C167.313,21.272 167.545,22.877 167.545,24.565 C167.545,24.866 167.529,25.183 167.529,25.484 C167.512,26.571 167.512,27.139 167.462,29.044 ZM162.201,40.640 L160.558,40.640 L160.558,44.567 C160.558,45.303 160.757,45.336 160.939,45.336 C161.388,45.336 161.968,45.002 162.333,44.785 L162.532,46.456 C161.885,46.824 161.172,47.092 160.541,47.092 C159.413,47.092 158.583,46.372 158.583,44.969 L158.583,40.656 L157.487,40.656 L157.487,39.319 L158.583,39.319 L158.583,36.745 L160.558,36.745 L160.558,39.302 L162.201,39.302 L162.201,40.640 ZM156.508,27.540 C157.022,27.540 157.620,27.507 158.716,26.571 L158.898,28.443 C157.852,29.061 157.089,29.261 156.160,29.261 C153.969,29.261 152.442,27.774 152.442,25.200 C152.442,22.459 154.268,21.272 155.960,21.272 C157.504,21.272 158.799,21.623 158.799,22.843 L158.799,23.278 C158.799,23.412 158.799,23.546 158.783,23.713 L156.840,23.713 C156.840,23.011 156.658,22.877 156.127,22.877 C155.778,22.877 155.612,22.910 155.496,22.960 C155.330,23.027 154.566,23.445 154.566,25.150 C154.566,27.106 155.662,27.540 156.508,27.540 ZM151.529,44.718 C151.529,45.988 150.433,47.092 148.358,47.092 C147.413,47.092 146.450,46.890 145.604,46.356 L145.819,44.685 C146.700,45.202 147.214,45.436 148.309,45.436 C149.272,45.436 149.488,45.136 149.488,44.885 C149.488,43.681 145.587,44.016 145.587,41.292 C145.587,39.938 146.716,39.102 148.691,39.102 C149.654,39.102 150.234,39.302 151.280,39.771 L151.048,41.542 C150.035,40.790 149.139,40.723 148.591,40.723 C148.259,40.723 147.596,40.807 147.596,41.225 C147.596,42.361 151.529,42.177 151.529,44.718 ZM150.849,26.888 C150.849,28.158 149.753,29.261 147.679,29.261 C146.733,29.261 145.770,29.061 144.924,28.526 L145.139,26.855 C146.020,27.373 146.535,27.607 147.629,27.607 C148.592,27.607 148.808,27.306 148.808,27.055 C148.808,25.852 144.907,26.186 144.907,23.462 C144.907,22.108 146.036,21.272 148.012,21.272 C148.973,21.272 149.555,21.473 150.601,21.941 L150.368,23.713 C149.356,22.960 148.459,22.893 147.912,22.893 C147.579,22.893 146.916,22.977 146.916,23.395 C146.916,24.531 150.849,24.348 150.849,26.888 ZM142.666,41.575 C142.650,41.208 142.683,40.790 142.368,40.790 C142.102,40.790 141.903,41.141 141.588,41.709 L141.588,46.874 L139.580,46.874 L139.580,41.525 C139.580,40.790 139.497,40.038 139.380,39.302 L141.173,39.302 L141.372,40.205 C141.654,39.670 142.352,39.118 142.965,39.118 C143.961,39.118 144.293,39.737 144.293,40.656 C144.293,40.890 144.276,41.141 144.243,41.375 L142.666,41.575 ZM143.082,29.044 L141.074,29.044 L141.074,21.473 L143.082,21.473 L143.082,29.044 ZM142.070,20.036 C141.440,20.036 140.892,19.484 140.892,18.815 C140.892,18.147 141.440,17.612 142.070,17.612 C142.717,17.612 143.231,18.130 143.231,18.798 C143.231,19.467 142.717,20.036 142.070,20.036 ZM136.725,29.044 C136.775,26.838 136.791,26.638 136.791,25.200 C136.791,24.916 136.791,24.582 136.759,24.264 C136.692,23.295 136.493,23.027 135.895,23.027 C135.580,23.027 135.049,23.094 134.950,23.194 C134.833,23.278 134.285,23.679 133.954,24.097 L133.954,29.044 L131.946,29.044 L131.946,23.713 C131.946,23.044 131.829,21.890 131.746,21.473 L133.539,21.473 L133.737,22.359 C134.402,21.606 135.149,21.272 136.012,21.272 C138.584,21.272 138.816,22.877 138.816,24.565 L138.816,25.484 C138.800,26.571 138.784,27.139 138.734,29.044 L136.725,29.044 ZM134.119,39.102 C136.691,39.102 137.438,40.472 137.438,43.313 L132.575,43.313 C132.624,44.350 133.371,45.370 134.534,45.370 C135.330,45.370 136.210,45.035 137.139,44.267 L137.322,46.238 C136.426,46.774 135.612,47.092 134.135,47.092 C132.027,47.092 130.450,45.587 130.450,43.113 C130.450,40.606 131.977,39.102 134.119,39.102 ZM135.628,42.061 C135.562,41.191 135.413,40.606 134.119,40.606 C133.869,40.606 133.339,40.790 133.272,40.840 C133.239,40.874 132.741,41.358 132.642,42.061 L135.628,42.061 ZM129.537,29.044 L127.530,29.044 C127.563,27.122 127.595,26.721 127.595,25.701 C127.595,23.562 127.530,23.027 126.700,23.027 C126.384,23.027 125.886,23.094 125.753,23.194 C125.637,23.278 125.106,23.679 124.758,24.097 L124.758,29.044 L122.749,29.044 L122.749,16.843 L124.758,16.843 L124.758,22.158 C125.338,21.573 126.003,21.272 126.815,21.272 C129.388,21.272 129.620,22.877 129.620,24.565 C129.620,24.866 129.604,25.183 129.604,25.484 C129.587,26.571 129.587,27.139 129.537,29.044 ZM125.803,43.915 L127.280,39.302 L129.305,39.302 L126.516,47.092 L125.006,47.092 L122.201,39.302 L124.359,39.302 L125.803,43.915 ZM124.159,61.928 C124.159,62.614 124.209,63.165 125.005,63.165 C125.221,63.165 125.720,63.132 125.918,63.015 C126.184,62.814 126.699,62.380 126.931,62.096 L126.931,57.131 L128.939,57.131 L128.939,62.464 C128.939,63.216 129.022,63.967 129.138,64.703 L127.346,64.703 L127.147,63.817 C126.549,64.519 125.803,64.921 124.872,64.921 C122.881,64.921 122.151,64.001 122.151,62.096 L122.151,57.131 L124.159,57.131 L124.159,61.928 ZM119.628,37.865 C118.998,37.865 118.451,37.314 118.451,36.645 C118.451,35.976 118.998,35.441 119.628,35.441 C120.276,35.441 120.790,35.960 120.790,36.628 C120.790,37.297 120.276,37.865 119.628,37.865 ZM118.252,27.540 C118.766,27.540 119.364,27.507 120.459,26.571 L120.642,28.443 C119.596,29.061 118.833,29.261 117.904,29.261 C115.712,29.261 114.186,27.774 114.186,25.200 C114.186,22.459 116.012,21.272 117.704,21.272 C119.248,21.272 120.543,21.623 120.543,22.843 L120.543,23.278 C120.543,23.412 120.543,23.546 120.526,23.713 L118.583,23.713 C118.583,23.011 118.402,22.877 117.870,22.877 C117.521,22.877 117.356,22.910 117.239,22.960 C117.074,23.027 116.310,23.445 116.310,25.150 C116.310,27.106 117.406,27.540 118.252,27.540 ZM116.259,42.395 L116.259,43.313 C116.243,44.400 116.227,44.969 116.176,46.874 L114.168,46.874 C114.218,44.668 114.234,44.467 114.234,43.029 C114.234,42.745 114.234,42.411 114.202,42.093 C114.135,41.124 113.936,40.857 113.338,40.857 C113.023,40.857 112.492,40.924 112.393,41.024 C112.276,41.108 111.728,41.509 111.397,41.927 L111.397,46.874 L109.389,46.874 L109.389,41.542 C109.389,40.874 109.272,39.720 109.189,39.302 L110.982,39.302 L111.181,40.188 C111.845,39.436 112.592,39.102 113.455,39.102 C116.027,39.102 116.259,40.706 116.259,42.395 ZM109.455,27.540 C110.251,27.540 111.131,27.206 112.060,26.437 L112.243,28.409 C111.347,28.944 110.533,29.261 109.056,29.261 C106.948,29.261 105.371,27.758 105.371,25.283 C105.371,22.776 106.898,21.272 109.040,21.272 C111.612,21.272 112.359,22.643 112.359,25.484 L107.496,25.484 C107.546,26.520 108.292,27.540 109.455,27.540 ZM110.550,24.231 C110.484,23.362 110.334,22.776 109.040,22.776 C108.790,22.776 108.260,22.960 108.193,23.011 C108.160,23.044 107.662,23.529 107.563,24.231 L110.550,24.231 ZM102.417,29.044 L100.409,29.044 L100.409,19.735 L97.189,19.735 L97.189,18.013 L105.654,18.013 L105.654,19.735 L102.417,19.735 L102.417,29.044 ZM80.651,44.618 L80.574,45.091 L80.107,45.081 L80.156,44.102 L80.172,42.580 L80.638,42.591 L80.682,43.261 L81.759,42.879 L81.792,41.357 L80.734,40.908 L80.658,41.729 L80.190,41.719 L80.233,40.653 L80.224,39.800 L80.681,39.811 L80.738,40.239 L84.727,42.015 C84.807,42.288 84.983,42.545 85.122,42.732 L85.117,42.935 L80.651,44.618 ZM82.340,41.622 L82.317,42.669 L83.720,42.215 L82.340,41.622 ZM84.163,37.909 L80.061,38.483 L79.950,37.677 L82.820,34.527 L80.154,34.899 L80.195,35.617 L79.723,35.683 L79.614,34.681 L79.431,33.572 L79.895,33.508 L80.049,34.210 L83.452,33.734 C83.576,33.590 83.572,33.346 83.507,32.875 L83.989,32.807 L84.252,34.708 L81.661,37.575 L84.070,37.237 L84.029,36.519 L84.493,36.455 L84.620,37.454 L84.782,38.556 L84.319,38.622 L84.163,37.909 ZM82.765,30.399 L79.361,31.418 L79.517,32.179 L79.068,32.314 L78.687,30.953 L78.259,29.574 L78.707,29.440 L78.992,30.164 L82.394,29.146 L82.230,28.386 L82.679,28.252 L83.069,29.642 L83.487,30.992 L83.039,31.126 L82.765,30.399 ZM81.277,25.805 L78.136,27.516 L78.448,28.269 L78.031,28.481 L77.407,27.192 L76.850,26.118 L77.267,25.907 L77.565,26.374 L80.220,24.974 L76.122,25.045 L78.397,21.840 L75.887,23.016 L76.116,23.604 L75.699,23.817 L75.370,23.116 L74.808,22.034 L75.226,21.822 L75.601,22.445 L78.845,20.942 L78.546,20.215 L78.964,20.002 L79.505,21.106 L79.855,21.786 L77.997,24.354 L81.097,24.269 L81.365,24.828 L82.109,26.294 L81.691,26.507 L81.277,25.805 ZM76.061,17.091 L73.255,19.359 C73.304,19.419 73.950,20.202 73.980,20.239 C74.064,20.345 74.232,20.508 74.265,20.505 C74.300,20.502 74.982,20.237 75.082,20.194 L75.383,20.572 L74.177,21.285 L72.912,19.698 L72.511,19.177 L71.581,18.040 L71.946,17.745 L72.480,18.308 L75.249,16.071 L74.812,15.430 L75.177,15.135 L76.071,16.288 L76.953,17.366 L76.588,17.661 L76.061,17.091 ZM72.809,14.467 L72.456,14.165 L72.799,13.550 L71.727,12.635 L70.794,13.742 L71.594,14.425 L71.985,14.066 L72.338,14.367 L71.282,15.620 L70.929,15.319 L71.236,14.850 L70.437,14.166 L69.566,15.200 C69.516,15.259 69.468,15.318 69.469,15.331 C69.536,15.400 69.596,15.479 69.772,15.629 C70.022,15.842 70.361,16.144 70.390,16.169 C70.493,16.257 70.669,16.407 70.689,16.398 C70.722,16.390 71.138,16.001 71.219,15.918 L71.579,16.226 L70.776,17.179 L69.139,15.781 L68.646,15.347 L67.467,14.366 L67.770,14.006 L68.452,14.500 L70.754,11.767 L70.216,11.206 L70.519,10.847 L71.609,11.816 L72.377,12.447 L73.200,13.149 L73.403,12.982 L73.763,13.289 L73.522,13.575 L72.809,14.467 ZM67.886,9.727 L66.347,12.950 L67.020,13.350 L66.818,13.775 L65.577,13.152 L64.251,12.532 L64.454,12.107 L65.184,12.386 L65.842,11.009 L63.822,10.031 L63.165,11.408 L63.829,11.805 L63.626,12.229 L62.368,11.598 L61.068,10.990 L61.271,10.566 L61.993,10.841 L63.532,7.619 L62.863,7.230 L63.066,6.806 L64.350,7.449 L65.624,8.045 L65.421,8.470 L64.702,8.186 L64.057,9.537 L66.078,10.515 L66.723,9.164 L66.045,8.772 L66.247,8.348 L67.497,8.973 L68.815,9.590 L68.612,10.015 L67.886,9.727 ZM63.603,18.006 C63.825,17.963 64.123,18.056 64.336,18.275 C64.355,18.295 64.387,18.295 64.408,18.275 C64.622,18.056 64.921,17.963 65.142,18.006 C65.863,18.146 65.932,18.911 65.522,19.511 C65.154,20.049 64.709,20.560 64.373,21.080 C64.037,20.560 63.591,20.049 63.222,19.511 C62.813,18.911 62.883,18.146 63.603,18.006 ZM65.932,28.062 C67.371,27.780 67.656,27.984 67.687,28.401 C66.142,28.175 65.297,28.783 63.881,28.735 C62.463,28.686 62.518,26.911 63.825,26.835 C63.319,27.620 64.207,28.309 65.932,28.062 ZM61.886,27.395 C61.957,27.710 62.038,28.282 61.904,28.993 C62.099,29.685 62.558,30.271 62.894,30.643 C63.501,31.315 64.725,32.088 65.579,32.586 C65.675,32.480 65.777,32.373 65.889,32.265 C65.981,32.177 65.960,32.027 65.901,31.924 C65.777,31.706 65.472,31.700 65.315,31.670 C65.139,31.639 64.936,31.361 65.245,31.138 C65.553,30.916 65.906,30.794 66.366,30.689 C66.675,30.617 67.265,30.532 67.937,30.710 C67.937,30.710 68.318,30.265 68.132,30.121 C67.440,29.583 66.115,29.917 66.115,29.917 C65.594,29.203 66.053,29.014 66.786,28.989 C67.387,28.966 68.056,29.067 68.761,29.324 C69.230,28.946 69.086,27.833 68.437,27.525 C67.008,26.845 65.908,27.540 65.908,27.540 C65.589,27.491 65.295,27.334 65.143,26.988 C64.969,26.594 65.086,26.161 65.086,26.161 C64.757,25.925 64.767,25.188 66.916,25.341 C66.916,25.341 66.694,24.732 66.860,24.242 C67.080,23.592 69.417,23.936 69.954,23.816 C70.089,23.785 70.350,23.692 70.483,23.653 C70.817,23.552 70.929,23.879 70.821,24.069 C70.641,24.388 70.581,24.796 70.581,24.796 C70.581,24.796 71.455,25.026 72.216,25.965 C72.626,26.471 72.781,27.273 72.856,27.646 C72.933,28.021 72.552,28.053 72.413,27.942 C72.289,27.841 72.084,27.614 71.838,27.662 C71.694,27.689 71.529,27.943 71.480,28.099 C72.328,28.555 72.638,29.589 72.707,30.021 C72.781,30.488 72.761,30.863 72.713,31.242 C72.665,31.619 72.293,31.527 72.197,31.374 C72.112,31.239 71.991,30.957 71.745,30.923 C71.521,30.891 71.367,31.076 71.269,31.288 C71.602,31.795 71.721,32.395 71.756,32.690 C71.813,33.163 71.782,33.535 71.719,33.911 C71.658,34.287 71.289,34.181 71.200,34.026 C71.119,33.887 71.008,33.602 70.763,33.558 C70.530,33.516 70.333,33.791 70.230,34.004 C70.747,34.530 70.927,35.307 70.982,35.656 C71.057,36.125 71.038,36.498 70.990,36.877 C70.941,37.256 70.558,37.230 70.474,37.011 C70.401,36.824 70.291,36.571 70.047,36.535 C69.906,36.514 69.701,36.658 69.616,36.761 C69.529,37.282 69.639,37.753 69.731,38.217 C69.889,39.010 70.308,39.773 71.302,40.500 C72.409,41.311 73.779,42.633 74.230,44.237 C75.179,43.813 76.045,42.900 74.938,41.369 C73.865,39.888 73.023,39.417 72.571,37.682 C72.307,36.672 72.480,35.612 73.338,34.504 C73.219,34.326 73.165,34.096 73.148,33.841 C73.120,33.396 73.166,32.768 73.587,32.061 C73.965,31.420 74.651,30.574 75.671,30.111 C75.927,30.262 75.947,30.753 75.890,30.862 C75.582,31.459 74.405,32.314 74.390,32.667 C74.381,32.866 74.852,33.162 75.022,33.105 C75.341,32.998 75.705,32.128 75.837,31.951 C75.945,31.806 76.345,31.807 76.315,32.188 C76.284,32.569 76.224,32.938 76.056,33.382 C75.888,33.818 75.326,34.681 74.196,34.847 C74.074,34.864 73.964,34.862 73.864,34.846 C73.192,35.773 73.295,36.715 73.390,37.256 C73.588,38.379 74.337,39.008 75.313,40.272 C76.193,41.411 76.645,42.054 76.400,43.301 C76.203,44.318 75.430,44.984 74.380,45.416 C74.432,47.342 73.260,48.281 73.240,48.953 C73.224,49.449 73.671,49.597 74.166,50.272 C74.642,50.923 74.821,51.984 74.685,52.823 C74.583,53.445 74.446,53.769 74.207,54.209 C73.967,54.652 73.440,54.473 73.470,54.132 C73.555,53.184 72.886,53.514 72.886,53.514 C72.886,53.514 72.911,54.516 72.227,55.864 C71.816,56.673 70.661,57.740 70.661,57.740 C70.661,57.740 71.609,57.889 71.892,58.013 C72.352,58.215 72.450,58.580 72.453,58.852 C72.625,58.968 72.764,59.117 72.837,59.335 C72.634,59.415 72.279,59.338 72.279,59.338 C72.279,59.338 71.944,59.644 71.343,59.278 C71.125,59.146 70.947,58.940 70.838,58.817 C70.683,58.643 70.535,58.629 70.429,58.723 C70.344,58.800 70.327,58.946 70.456,59.090 C70.649,59.303 70.900,59.636 70.980,59.782 C71.104,60.013 71.169,60.540 70.988,60.727 C70.988,60.727 71.123,61.109 71.060,61.327 C70.842,61.301 70.539,60.930 70.539,60.930 C70.253,60.883 69.974,60.597 69.897,60.266 C69.807,59.888 69.857,59.573 69.862,59.307 C69.867,59.061 69.805,58.944 69.648,58.932 C69.463,58.918 69.394,59.041 69.374,59.226 C69.321,59.714 68.981,60.499 68.320,60.610 C68.211,60.802 67.966,60.940 67.810,60.987 C67.703,60.740 67.781,60.445 67.850,60.288 C67.658,59.770 67.892,59.248 68.779,58.724 C68.907,58.651 68.966,58.504 68.898,58.383 C68.839,58.281 68.724,58.252 68.570,58.304 C68.402,58.359 68.105,58.442 67.703,58.525 C67.318,58.605 66.953,58.547 66.798,58.222 C66.798,58.222 66.488,58.213 66.278,58.068 C66.398,57.888 66.554,57.736 66.747,57.691 C66.814,57.434 67.209,57.249 67.502,57.216 C68.308,57.128 69.338,57.312 69.338,57.312 C69.338,57.312 69.868,56.792 70.371,55.970 C71.018,54.914 70.925,53.754 70.925,53.754 C70.925,53.754 70.794,53.564 70.575,53.552 C70.328,53.538 70.150,53.788 70.039,53.903 C69.915,54.031 69.562,54.045 69.563,53.662 C69.563,53.433 69.597,53.080 69.747,52.630 C69.846,52.332 69.999,52.071 70.243,51.716 C70.117,51.544 69.893,51.391 69.750,51.432 C69.547,51.492 69.436,51.648 69.364,51.852 C69.264,52.129 68.818,52.177 68.726,51.768 C68.643,51.395 68.618,51.048 68.672,50.562 C68.765,49.723 68.896,48.864 69.832,47.578 C70.282,46.959 71.344,45.690 71.365,44.923 C71.387,44.195 68.943,44.110 67.128,42.899 C65.634,41.901 65.286,40.316 65.286,40.316 C65.286,40.316 64.751,41.019 63.584,41.724 C62.815,42.190 61.353,42.539 61.353,42.539 C61.612,42.877 61.809,43.277 61.924,43.619 C62.102,44.145 61.973,44.433 61.780,44.622 C61.816,44.830 61.748,45.056 61.642,45.257 C61.440,45.126 61.311,44.835 61.311,44.835 C60.975,44.846 60.800,44.645 60.711,44.237 C60.659,44.005 60.625,43.622 60.630,43.457 C60.636,43.198 60.547,43.083 60.420,43.083 C60.310,43.083 60.222,43.176 60.211,43.346 C60.193,43.633 60.141,44.042 60.091,44.203 C60.013,44.452 59.789,44.842 59.527,44.842 C59.527,44.842 59.360,45.235 59.157,45.343 C59.026,45.165 59.081,44.689 59.081,44.689 C58.911,44.554 58.818,44.257 59.052,43.727 C59.225,43.330 59.355,43.226 59.534,43.032 C59.698,42.853 59.769,42.733 59.654,42.614 C59.563,42.519 59.474,42.550 59.324,42.651 C58.982,42.885 58.135,43.273 57.594,42.872 C57.381,42.926 57.172,42.824 57.030,42.744 C57.133,42.493 57.356,42.318 57.558,42.286 C57.789,41.937 58.291,41.727 59.319,41.874 C59.457,41.894 59.617,41.876 59.660,41.735 C59.699,41.602 59.658,41.479 59.482,41.398 C59.323,41.324 59.053,41.189 58.714,40.955 C58.389,40.732 58.177,40.427 58.302,40.087 C58.302,40.087 58.094,39.858 58.050,39.604 C58.262,39.566 58.480,39.576 58.645,39.683 C58.876,39.552 59.275,39.681 59.537,39.919 C59.808,40.164 60.207,40.651 60.566,41.138 C60.566,41.138 61.911,40.961 62.973,39.782 C63.626,39.056 63.760,37.877 63.795,36.840 C63.801,36.668 63.731,36.503 63.590,36.440 C63.362,36.338 63.112,36.513 62.968,36.582 C62.806,36.661 62.468,36.552 62.601,36.194 C62.733,35.835 62.835,35.646 63.144,35.288 C63.317,35.089 63.709,34.683 64.206,34.407 C63.782,34.087 63.293,33.643 62.847,33.203 C62.464,32.828 61.828,31.844 61.499,31.077 C61.427,31.323 61.355,31.659 61.266,31.879 C61.076,32.347 60.840,32.441 60.571,32.463 C60.466,32.642 60.271,32.772 60.060,32.860 C59.989,32.628 60.098,32.283 60.098,32.283 C59.833,32.075 59.887,31.750 60.026,31.413 C60.149,31.117 60.314,30.936 60.430,30.818 C60.621,30.624 60.639,30.483 60.532,30.390 C60.430,30.301 60.300,30.326 60.186,30.468 C60.004,30.692 59.685,30.957 59.546,31.047 C59.326,31.188 58.822,31.262 58.623,31.092 C58.623,31.092 58.274,31.247 58.051,31.200 C58.062,30.979 58.380,30.684 58.380,30.684 C58.406,30.394 58.462,30.261 58.975,29.991 C59.209,29.867 59.602,29.781 59.866,29.789 C60.143,29.797 60.261,29.673 60.262,29.549 C60.262,29.401 60.141,29.310 59.937,29.318 C59.449,29.341 58.639,29.068 58.482,28.411 C58.284,28.315 58.189,28.102 58.132,27.948 C58.370,27.822 58.667,27.881 58.828,27.939 C59.326,27.710 59.860,27.910 60.439,28.764 C60.591,28.986 60.980,28.865 60.842,28.523 C60.778,28.359 60.674,28.066 60.563,27.668 C60.456,27.287 60.489,26.916 60.800,26.737 C60.800,26.737 60.788,26.426 60.917,26.205 C61.102,26.313 61.264,26.460 61.322,26.649 C61.583,26.697 61.817,27.089 61.886,27.395 ZM68.786,25.231 C68.458,24.860 68.095,25.107 67.757,25.406 C67.757,25.406 68.378,26.420 68.853,26.110 C69.191,25.891 69.023,25.500 68.786,25.231 ZM58.319,34.601 C58.540,34.558 58.838,34.652 59.052,34.872 C59.071,34.891 59.103,34.891 59.124,34.872 C59.338,34.652 59.637,34.558 59.857,34.601 C60.579,34.742 60.648,35.508 60.238,36.106 C59.869,36.645 59.425,37.156 59.089,37.676 C58.753,37.156 58.307,36.645 57.938,36.106 C57.528,35.508 57.599,34.742 58.319,34.601 ZM59.088,18.258 C58.753,17.739 58.307,17.229 57.938,16.689 C57.529,16.091 57.599,15.324 58.319,15.184 C58.541,15.141 58.839,15.235 59.052,15.455 C59.071,15.474 59.102,15.474 59.124,15.455 C59.338,15.235 59.637,15.141 59.857,15.184 C60.579,15.324 60.648,16.091 60.238,16.689 C59.870,17.229 59.425,17.739 59.088,18.258 ZM58.022,10.484 L57.378,10.369 L55.931,10.153 L56.006,9.687 L56.777,9.745 L57.345,6.216 L56.594,6.035 L56.668,5.571 L58.100,5.823 L59.471,6.027 L59.397,6.492 L58.627,6.425 L58.051,10.002 C58.128,10.014 59.128,10.157 59.175,10.165 C59.308,10.187 59.542,10.196 59.564,10.170 C59.588,10.145 59.918,9.488 59.963,9.388 L60.438,9.465 L60.017,10.809 L58.022,10.484 ZM58.289,72.517 L58.301,72.332 L58.759,72.290 L58.798,72.721 L58.932,73.847 L58.474,73.890 C58.351,73.188 57.748,73.013 57.070,73.076 C56.355,73.143 55.745,73.943 55.849,75.063 C55.948,76.135 56.772,76.926 57.507,76.857 C58.232,76.789 58.597,76.571 58.596,76.562 C58.640,76.423 58.648,75.776 58.647,75.659 L59.105,75.617 L59.221,76.870 C58.544,77.146 58.339,77.320 57.403,77.408 C55.858,77.553 54.622,76.674 54.489,75.239 C54.374,74.005 55.217,72.709 56.886,72.552 C57.651,72.480 57.786,72.487 58.289,72.517 ZM54.242,68.174 L54.242,14.882 C54.381,14.831 54.680,14.800 54.680,14.800 C54.680,14.800 54.963,14.828 55.109,14.882 L55.109,68.174 C54.815,68.270 54.675,68.270 54.675,68.270 C54.675,68.270 54.545,68.263 54.242,68.174 ZM51.719,10.367 L51.687,9.898 L52.451,9.777 L52.203,6.209 L51.432,6.206 L51.399,5.736 L52.831,5.656 L54.230,5.538 L54.263,6.007 L53.499,6.119 L53.746,9.686 L54.519,9.699 L54.551,10.169 L53.149,10.249 L51.719,10.367 ZM51.689,33.518 C51.685,35.130 51.168,36.401 50.776,37.392 C50.776,37.392 51.235,37.507 51.865,37.940 C52.310,38.246 52.183,38.517 52.166,38.643 C52.228,38.701 52.268,38.753 52.307,38.835 C52.344,38.919 52.371,39.010 52.387,39.103 C52.288,39.112 52.195,39.103 52.114,39.075 C52.032,39.046 51.935,38.988 51.935,38.988 C51.829,39.079 51.652,39.116 51.426,39.006 C51.095,38.845 50.926,38.604 50.802,38.427 C50.694,38.272 50.573,38.254 50.491,38.312 C50.408,38.372 50.379,38.477 50.464,38.613 C50.594,38.819 50.776,39.033 50.871,39.500 C50.925,39.769 50.810,39.905 50.726,39.970 C50.726,39.970 50.760,40.045 50.773,40.152 C50.786,40.259 50.752,40.390 50.715,40.477 C50.627,40.453 50.531,40.393 50.458,40.303 C50.385,40.213 50.360,40.099 50.360,40.099 C50.360,40.099 50.014,40.140 49.899,39.500 C49.865,39.320 49.862,38.925 49.895,38.738 C49.942,38.480 49.875,38.423 49.793,38.406 C49.699,38.384 49.629,38.422 49.577,38.585 C49.525,38.748 49.341,39.149 49.187,39.377 C49.003,39.648 48.749,39.693 48.556,39.628 C48.497,39.722 48.418,39.764 48.341,39.795 C48.264,39.825 48.195,39.837 48.125,39.833 C48.095,39.725 48.089,39.625 48.116,39.527 C48.141,39.427 48.195,39.356 48.232,39.296 C48.158,39.101 48.234,38.854 48.388,38.668 C48.540,38.481 48.800,38.319 49.171,38.098 C49.265,38.042 49.374,37.949 49.337,37.833 C49.297,37.714 49.194,37.693 49.046,37.730 C48.789,37.795 48.468,37.845 47.986,37.777 C47.793,37.750 47.660,37.600 47.623,37.457 C47.623,37.457 47.500,37.464 47.412,37.429 C47.283,37.376 47.204,37.276 47.204,37.276 C47.204,37.276 47.279,37.168 47.391,37.119 C47.488,37.076 47.616,37.071 47.616,37.071 C47.616,37.071 47.634,36.784 48.013,36.729 C48.752,36.627 49.452,36.875 49.684,36.944 C49.872,36.512 50.117,35.377 50.006,34.727 C49.890,34.052 49.008,34.237 48.696,33.608 C48.305,32.820 48.391,31.627 47.856,31.524 C46.976,31.356 47.688,32.052 44.583,32.818 C43.632,33.053 42.890,32.919 42.360,33.469 C42.153,33.686 41.791,34.692 41.285,35.345 C40.395,36.495 39.723,36.828 39.723,36.828 C39.850,36.883 40.341,37.108 40.612,37.438 C40.707,37.550 40.744,37.779 40.728,37.907 C40.791,37.963 40.832,38.014 40.868,38.098 C40.907,38.181 40.933,38.272 40.950,38.366 C40.851,38.375 40.758,38.366 40.677,38.338 C40.595,38.308 40.499,38.251 40.499,38.251 C40.393,38.341 40.216,38.378 39.990,38.270 C39.658,38.107 39.488,37.866 39.365,37.689 C39.257,37.534 39.136,37.516 39.054,37.575 C38.972,37.633 38.941,37.739 39.027,37.875 C39.157,38.081 39.339,38.295 39.434,38.762 C39.488,39.032 39.374,39.167 39.290,39.232 C39.290,39.232 39.322,39.307 39.335,39.415 C39.347,39.522 39.316,39.653 39.277,39.741 C39.190,39.716 39.094,39.655 39.021,39.565 C38.948,39.475 38.921,39.362 38.921,39.362 C38.921,39.362 38.576,39.402 38.460,38.762 C38.428,38.582 38.423,38.187 38.456,38.001 C38.503,37.742 38.437,37.686 38.354,37.668 C38.261,37.649 38.192,37.685 38.140,37.847 C38.087,38.010 37.904,38.414 37.751,38.639 C37.566,38.910 37.311,38.955 37.118,38.890 C37.058,38.984 36.981,39.026 36.905,39.057 C36.826,39.087 36.759,39.100 36.686,39.097 C36.658,38.988 36.652,38.888 36.677,38.789 C36.705,38.689 36.759,38.618 36.796,38.558 C36.719,38.364 36.797,38.117 36.949,37.931 C37.104,37.746 37.363,37.580 37.732,37.360 C37.829,37.304 37.936,37.211 37.898,37.094 C37.859,36.976 37.757,36.957 37.609,36.993 C37.351,37.055 37.029,37.108 36.547,37.038 C36.354,37.012 36.223,36.862 36.185,36.719 C36.185,36.719 36.062,36.726 35.974,36.690 C35.845,36.639 35.765,36.538 35.765,36.538 C35.765,36.538 35.841,36.429 35.952,36.381 C36.051,36.338 36.177,36.332 36.177,36.332 C36.177,36.332 36.254,36.028 36.614,35.981 C37.589,35.849 38.432,36.196 38.432,36.196 C38.432,36.196 39.612,35.405 39.980,34.866 C40.272,34.440 40.510,33.930 40.589,33.472 C40.689,32.905 40.529,32.849 40.356,32.716 C40.117,32.537 39.736,32.291 39.264,31.732 C38.992,31.412 38.638,30.622 38.625,29.845 C38.247,29.510 37.754,28.932 37.405,28.473 C37.415,28.679 37.435,29.091 37.265,29.538 C37.213,29.677 37.004,29.793 36.882,29.829 C36.853,29.909 36.821,29.967 36.760,30.035 C36.699,30.102 36.626,30.161 36.547,30.213 C36.501,30.126 36.472,30.037 36.467,29.950 C36.461,29.861 36.477,29.752 36.477,29.752 C36.354,29.687 36.249,29.537 36.261,29.286 C36.280,28.915 36.434,28.664 36.546,28.481 C36.646,28.320 36.616,28.200 36.530,28.147 C36.443,28.093 36.334,28.108 36.247,28.239 C36.107,28.440 35.982,28.694 35.594,28.963 C35.367,29.119 35.201,29.066 35.107,29.013 C35.107,29.013 35.051,29.073 34.958,29.126 C34.865,29.179 34.732,29.202 34.638,29.200 C34.626,29.110 34.643,28.999 34.697,28.893 C34.751,28.790 34.845,28.722 34.845,28.722 C34.845,28.722 34.673,28.420 35.213,28.062 C35.364,27.962 35.724,27.803 35.906,27.759 C36.161,27.701 36.187,27.619 36.171,27.535 C36.154,27.440 36.094,27.392 35.925,27.407 C35.754,27.421 35.315,27.408 35.048,27.354 C34.727,27.290 34.588,27.070 34.571,26.868 C34.462,26.848 34.393,26.794 34.335,26.734 C34.277,26.673 34.239,26.614 34.214,26.547 C34.302,26.477 34.390,26.434 34.492,26.420 C34.593,26.403 34.679,26.427 34.749,26.438 C34.897,26.292 35.152,26.267 35.383,26.337 C35.611,26.404 35.863,26.581 36.209,26.838 C36.299,26.905 36.426,26.969 36.517,26.889 C36.610,26.805 36.589,26.704 36.497,26.581 C36.340,26.366 36.167,26.089 36.041,25.614 C35.989,25.424 36.076,25.243 36.190,25.155 C36.190,25.155 36.138,25.042 36.135,24.948 C36.132,24.807 36.193,24.694 36.193,24.694 C36.193,24.694 36.323,24.722 36.410,24.807 C36.487,24.881 36.543,24.997 36.543,24.997 C36.543,24.997 36.907,24.920 37.088,25.260 C37.442,25.917 37.377,26.439 37.340,26.650 C37.608,27.157 37.880,27.399 38.202,27.710 C38.388,27.889 38.692,28.068 39.045,28.241 C39.274,27.876 39.593,27.530 39.995,27.132 C40.468,26.663 40.806,26.460 41.157,26.134 C41.578,25.744 41.789,25.348 41.789,25.348 C41.789,25.348 41.067,25.129 40.310,25.364 C40.225,25.225 40.067,24.928 40.206,24.737 C40.772,24.503 41.613,24.541 41.994,24.658 C42.121,24.460 42.379,23.969 42.073,23.704 C41.682,23.366 40.691,23.289 39.981,23.661 C39.806,23.566 39.559,23.220 39.725,22.844 C39.340,22.424 39.593,22.283 39.729,22.226 C40.174,22.032 40.540,22.103 40.951,22.084 C40.958,21.918 40.957,21.825 41.035,21.629 C41.226,21.155 42.453,21.305 42.914,21.302 C43.230,21.299 43.498,21.240 43.770,21.186 C44.136,21.108 44.155,21.477 44.059,21.625 L43.815,21.951 C44.184,22.102 44.565,22.327 44.704,22.731 C44.810,23.040 44.730,23.391 44.810,23.671 C44.900,23.986 45.063,24.095 45.206,24.357 C45.428,24.769 45.471,25.084 45.523,25.521 C45.568,25.895 45.202,25.899 45.062,25.791 C44.984,25.731 44.761,25.437 44.518,25.466 C44.365,25.484 44.245,25.706 44.186,25.867 C44.186,25.867 44.532,26.490 44.645,27.028 C44.741,27.485 44.700,27.859 44.651,28.234 C44.607,28.607 44.227,28.507 44.133,28.360 C44.059,28.245 43.940,27.953 43.695,27.916 C43.436,27.881 43.209,28.165 43.177,28.454 C43.144,28.768 43.177,29.040 43.348,29.289 C44.099,30.397 47.534,28.296 49.022,29.487 C49.114,29.086 49.158,28.658 49.075,28.296 C48.894,27.497 47.527,27.115 46.881,26.203 L46.881,26.200 C46.755,26.017 46.651,25.811 46.597,25.579 C46.349,24.516 47.056,23.033 47.422,22.365 C47.137,21.912 47.268,21.013 47.430,20.623 C47.624,20.149 47.781,19.910 48.009,19.592 C48.238,19.273 48.806,19.311 48.806,19.505 C48.806,19.505 48.145,20.277 48.393,20.547 C48.616,20.788 49.833,19.945 48.949,21.821 C48.630,22.490 48.214,22.697 47.867,22.647 C47.504,23.374 47.056,24.513 47.268,25.363 C47.355,25.708 47.574,25.969 47.850,26.200 L47.853,26.200 C48.547,26.778 49.602,27.159 49.820,28.206 C49.946,28.829 49.765,29.656 49.583,30.252 C49.847,30.856 49.859,31.519 50.018,32.087 C50.097,32.311 50.261,32.671 50.526,32.642 C50.766,32.616 50.893,32.368 50.988,32.224 C51.109,32.039 51.441,32.005 51.496,32.378 C51.552,32.751 51.689,33.114 51.689,33.518 ZM42.423,22.105 C42.166,21.832 41.897,22.031 41.645,22.266 C41.645,22.266 42.190,22.992 42.498,22.771 C42.744,22.593 42.612,22.304 42.423,22.105 ZM43.578,11.333 L41.499,12.590 L40.944,11.659 L43.023,10.401 L43.578,11.333 ZM49.297,10.946 L48.614,11.183 L47.161,9.550 L47.049,11.723 L46.312,11.979 L43.276,8.568 L42.811,8.668 L42.659,8.223 L43.657,7.897 L44.716,7.511 L44.867,7.956 L44.537,8.121 L46.560,10.470 L46.586,8.906 L45.577,7.772 L45.213,7.836 L45.061,7.391 L45.959,7.101 L47.181,6.658 L47.333,7.103 L46.794,7.341 L48.807,9.693 L48.881,6.628 L48.288,6.773 L48.136,6.327 L49.071,6.024 L49.804,5.730 L49.963,6.193 L49.527,6.405 L49.297,10.946 ZM40.213,24.143 C40.215,24.267 39.107,24.854 38.211,24.474 C37.757,24.281 37.675,23.390 38.658,23.273 C38.331,23.954 38.841,24.346 40.213,24.143 ZM36.108,16.281 C35.320,15.393 35.110,13.906 36.451,12.698 C37.778,11.504 39.216,11.872 40.004,12.761 C40.774,13.629 41.010,15.144 39.683,16.338 C38.341,17.545 36.897,17.170 36.108,16.281 ZM38.978,13.684 C38.374,13.004 37.433,12.511 36.794,13.086 C36.149,13.667 36.492,14.634 37.128,15.350 C37.757,16.060 38.693,16.532 39.339,15.951 C39.977,15.376 39.589,14.372 38.978,13.684 ZM35.581,19.916 C35.629,19.854 36.225,19.034 36.255,18.996 C36.336,18.888 36.454,18.686 36.443,18.652 C36.431,18.619 36.012,18.016 35.946,17.929 L36.238,17.544 L37.216,18.552 L35.989,20.169 L35.585,20.688 L34.713,21.870 L34.342,21.585 L34.756,20.927 L31.933,18.759 L31.421,19.340 L31.049,19.053 L31.945,17.902 L32.770,16.781 L33.142,17.066 L32.721,17.718 L35.581,19.916 ZM33.097,25.063 C32.279,26.676 30.798,26.853 29.744,26.311 C28.690,25.770 27.961,24.460 28.779,22.845 C29.588,21.247 31.060,21.068 32.115,21.610 C33.143,22.137 33.906,23.465 33.097,25.063 ZM29.238,23.081 C28.845,23.858 29.510,24.635 30.361,25.072 C31.203,25.504 32.244,25.603 32.638,24.826 C33.028,24.058 32.305,23.263 31.489,22.844 C30.682,22.429 29.627,22.313 29.238,23.081 ZM31.292,28.415 C31.439,28.258 31.431,28.255 31.551,28.018 L31.948,28.290 L31.568,29.066 C31.247,29.737 29.432,29.978 28.802,30.151 L28.738,30.364 L30.154,30.793 L30.382,30.265 L30.840,30.403 L30.455,31.592 L30.081,32.947 L29.624,32.808 L29.781,32.046 L26.390,31.020 L26.154,31.911 L25.688,31.769 C25.802,31.288 25.951,30.685 26.029,30.324 C26.059,30.191 26.228,29.494 26.302,29.243 C26.762,27.702 27.400,27.400 28.159,27.630 C28.835,27.834 29.138,28.290 29.060,28.984 C29.258,28.923 31.201,28.520 31.292,28.415 ZM27.860,28.996 C27.467,28.878 26.977,28.952 26.813,29.499 L26.737,29.759 L28.428,30.271 L28.490,30.057 C28.651,29.519 28.309,29.131 27.860,28.996 ZM29.343,33.997 L29.806,34.057 L29.655,35.024 L29.483,36.535 L29.020,36.476 L29.047,35.805 L27.936,36.073 L27.745,37.582 L28.752,38.142 L28.912,37.331 L29.375,37.391 L29.223,38.445 L29.144,39.295 L28.690,39.236 L28.677,38.805 L24.893,36.621 C24.842,36.342 24.694,36.069 24.576,35.867 L24.600,35.666 L29.218,34.459 L29.343,33.997 ZM25.915,36.528 L27.227,37.262 L27.358,36.224 L25.915,36.528 ZM25.876,40.353 L25.887,40.819 C25.183,40.894 24.968,41.490 24.984,42.178 C25.001,42.904 25.752,43.575 26.868,43.548 C27.937,43.522 28.778,42.745 28.761,41.999 C28.743,41.263 28.553,40.880 28.543,40.880 C28.408,40.825 27.767,40.773 27.653,40.766 L27.642,40.301 L28.891,40.270 C29.118,40.973 29.276,41.192 29.299,42.141 C29.335,43.712 28.380,44.898 26.950,44.932 C25.719,44.961 24.493,44.022 24.453,42.326 C24.435,41.551 24.451,41.415 24.515,40.910 L24.333,40.885 L24.323,40.420 L24.752,40.410 L25.876,40.353 ZM26.407,52.411 L29.764,51.339 L29.462,50.474 L29.925,50.326 C30.277,51.216 30.620,52.118 30.908,53.029 C31.220,54.022 30.994,54.864 30.312,55.081 C29.876,55.221 29.426,54.970 29.141,54.636 C29.166,55.225 28.955,55.829 28.355,56.020 C27.444,56.311 26.798,55.434 26.555,54.661 C26.404,54.183 26.275,53.709 26.124,53.230 L25.642,51.764 L26.088,51.622 L26.407,52.411 ZM29.009,53.423 C29.130,53.809 29.546,53.889 29.882,53.781 C30.201,53.680 30.467,53.473 30.348,53.096 C30.293,52.921 30.229,52.749 30.174,52.575 L28.873,52.990 L29.009,53.423 ZM26.933,54.116 C27.076,54.567 27.422,54.871 27.967,54.696 C28.414,54.554 28.655,54.113 28.510,53.652 L28.354,53.156 L27.070,53.565 C26.817,53.647 26.821,53.757 26.933,54.116 ZM28.754,58.839 L31.885,57.177 L31.436,56.379 L31.867,56.151 C32.120,56.573 32.431,57.106 32.626,57.418 C32.697,57.532 33.061,58.146 33.182,58.376 C33.923,59.794 33.677,60.458 32.977,60.830 C32.352,61.161 31.820,61.051 31.393,60.503 C31.294,60.686 30.188,62.342 30.194,62.480 C30.200,62.695 30.208,62.691 30.286,62.945 L29.814,63.031 L29.548,62.212 C29.309,61.510 30.439,60.061 30.768,59.494 L30.666,59.297 L29.357,59.991 L29.561,60.527 L29.139,60.750 L28.588,59.635 L27.915,58.411 L28.337,58.187 L28.754,58.839 ZM31.055,59.341 C31.314,59.837 31.827,59.869 32.241,59.649 C32.604,59.458 32.902,59.060 32.639,58.555 L32.514,58.316 L30.952,59.144 L31.055,59.341 ZM31.672,63.996 L35.861,62.784 C36.095,62.941 36.393,63.023 36.617,63.077 L36.743,63.236 L34.376,67.404 L34.616,67.815 L34.251,68.109 L33.671,67.328 L32.719,66.155 L33.084,65.861 L33.541,66.346 L34.127,65.358 L33.190,64.173 L32.091,64.512 L32.553,65.188 L32.187,65.482 L31.545,64.640 L30.998,63.994 L31.356,63.706 L31.672,63.996 ZM34.423,64.838 L35.214,63.585 L33.778,64.022 L34.423,64.838 ZM38.223,66.284 L37.650,65.727 L37.950,65.366 L38.996,66.271 L40.147,67.216 L39.848,67.577 L39.216,67.120 L37.673,68.979 C37.105,69.664 37.445,70.277 37.754,70.537 C38.070,70.803 38.911,71.174 39.474,70.494 L41.016,68.636 L40.480,68.109 L40.780,67.748 L41.561,68.417 L42.426,69.133 L42.127,69.494 L41.553,69.087 L39.998,70.960 C39.283,71.824 38.291,71.816 37.254,70.943 C36.284,70.127 35.965,69.006 36.559,68.291 L38.223,66.284 ZM42.372,73.798 L43.767,70.636 C43.712,70.453 43.505,70.329 43.076,70.138 L43.274,69.689 L45.007,70.465 L46.047,74.191 L47.036,71.952 L46.410,71.609 L46.601,71.179 L47.508,71.595 L48.519,72.036 L48.328,72.467 L47.649,72.226 L45.966,76.038 L45.232,75.709 L44.100,71.595 L43.007,74.071 L43.631,74.414 L43.438,74.854 L42.539,74.420 L41.511,73.992 L41.701,73.561 L42.372,73.798 ZM43.591,59.000 C43.333,59.062 43.013,59.114 42.531,59.044 C42.339,59.017 42.207,58.869 42.170,58.728 C42.170,58.728 42.046,58.734 41.959,58.698 C41.829,58.647 41.749,58.545 41.749,58.545 C41.749,58.545 41.827,58.437 41.937,58.388 C42.034,58.347 42.163,58.340 42.163,58.340 C42.163,58.340 42.183,58.026 42.565,57.990 C43.537,57.897 44.254,58.154 44.254,58.154 C44.496,58.038 44.966,57.776 45.357,57.463 C45.588,57.279 45.947,56.859 45.976,56.616 C46.019,56.237 45.465,56.328 45.222,56.069 C44.986,55.821 45.163,54.762 45.163,54.762 C45.163,54.762 46.009,54.499 46.736,54.145 C47.001,54.015 47.192,54.176 47.199,54.327 C47.235,55.009 47.129,55.725 47.762,56.450 C47.759,56.737 47.198,57.484 46.786,57.825 C46.454,58.102 45.877,58.425 45.399,58.709 C45.399,58.709 46.225,59.070 46.591,59.444 C46.695,59.548 46.722,59.785 46.706,59.912 C46.769,59.969 46.810,60.021 46.849,60.103 C46.886,60.187 46.912,60.277 46.927,60.371 C46.830,60.381 46.737,60.371 46.656,60.342 C46.574,60.314 46.477,60.257 46.477,60.257 C46.372,60.345 46.194,60.383 45.970,60.274 C45.637,60.113 45.468,59.873 45.345,59.696 C45.238,59.540 45.116,59.522 45.034,59.581 C44.953,59.641 44.922,59.745 45.007,59.880 C45.139,60.086 45.319,60.301 45.414,60.766 C45.466,61.037 45.355,61.171 45.269,61.237 C45.269,61.237 45.302,61.311 45.315,61.418 C45.328,61.526 45.295,61.657 45.256,61.743 C45.170,61.719 45.074,61.659 45.000,61.569 C44.929,61.479 44.903,61.367 44.903,61.367 C44.903,61.367 44.557,61.407 44.442,60.766 C44.409,60.588 44.405,60.194 44.438,60.006 C44.485,59.746 44.418,59.692 44.336,59.674 C44.243,59.655 44.174,59.690 44.122,59.853 C44.068,60.016 43.886,60.418 43.733,60.643 C43.548,60.914 43.295,60.960 43.101,60.895 C43.041,60.989 42.965,61.030 42.887,61.061 C42.810,61.091 42.743,61.103 42.670,61.100 C42.641,60.993 42.635,60.893 42.662,60.793 C42.688,60.694 42.743,60.622 42.780,60.564 C42.704,60.370 42.781,60.123 42.933,59.937 C43.086,59.750 43.345,59.587 43.716,59.368 C43.811,59.309 43.918,59.217 43.880,59.101 C43.841,58.983 43.738,58.963 43.591,59.000 ZM40.213,45.330 C40.215,45.454 39.113,46.024 38.211,45.660 C37.722,45.463 37.675,44.576 38.658,44.458 C38.331,45.139 38.841,45.533 40.213,45.330 ZM46.927,39.184 C46.830,39.195 46.737,39.184 46.656,39.156 C46.574,39.129 46.477,39.071 46.477,39.071 C46.372,39.159 46.194,39.197 45.970,39.088 C45.637,38.927 45.468,38.686 45.345,38.511 C45.238,38.354 45.116,38.336 45.034,38.394 C44.953,38.454 44.922,38.558 45.007,38.694 C45.139,38.899 45.319,39.116 45.414,39.580 C45.466,39.851 45.355,39.985 45.269,40.051 C45.269,40.051 45.302,40.124 45.315,40.232 C45.328,40.340 45.295,40.470 45.256,40.558 C45.170,40.534 45.075,40.474 45.000,40.383 C44.929,40.293 44.903,40.180 44.903,40.180 C44.903,40.180 44.557,40.220 44.442,39.580 C44.409,39.401 44.405,39.008 44.438,38.821 C44.485,38.561 44.418,38.505 44.336,38.488 C44.243,38.468 44.174,38.504 44.122,38.667 C44.069,38.829 43.886,39.232 43.732,39.457 C43.548,39.728 43.295,39.773 43.101,39.709 C43.041,39.802 42.965,39.845 42.887,39.875 C42.810,39.906 42.742,39.917 42.670,39.913 C42.641,39.808 42.635,39.708 42.662,39.607 C42.688,39.507 42.742,39.437 42.780,39.377 C42.704,39.183 42.781,38.936 42.933,38.751 C43.084,38.564 43.345,38.401 43.716,38.181 C43.811,38.123 43.918,38.032 43.880,37.915 C43.841,37.798 43.738,37.776 43.591,37.813 C43.333,37.876 43.013,37.928 42.531,37.859 C42.339,37.832 42.207,37.682 42.170,37.541 C42.170,37.541 42.046,37.548 41.960,37.513 C41.829,37.460 41.749,37.359 41.749,37.359 C41.749,37.359 41.827,37.250 41.937,37.203 C42.034,37.160 42.163,37.155 42.163,37.155 C42.163,37.155 42.183,36.840 42.565,36.804 C43.537,36.711 44.254,36.968 44.254,36.968 C44.496,36.852 44.966,36.589 45.357,36.277 C45.588,36.093 45.947,35.674 45.976,35.430 C46.019,35.051 45.465,35.143 45.222,34.883 C44.986,34.634 45.163,33.576 45.163,33.576 C45.163,33.576 46.009,33.313 46.736,32.959 C47.001,32.829 47.192,32.989 47.199,33.141 C47.235,33.824 47.129,34.540 47.762,35.263 C47.759,35.551 47.198,36.298 46.786,36.639 C46.454,36.916 45.877,37.240 45.399,37.524 C45.399,37.524 46.225,37.885 46.591,38.257 C46.695,38.363 46.723,38.600 46.706,38.725 C46.769,38.784 46.810,38.835 46.849,38.916 C46.886,39.001 46.912,39.092 46.927,39.184 ZM48.125,61.020 C48.095,60.912 48.089,60.811 48.116,60.714 C48.141,60.614 48.195,60.542 48.232,60.483 C48.157,60.287 48.234,60.040 48.388,59.855 C48.540,59.668 48.800,59.505 49.171,59.284 C49.265,59.227 49.374,59.136 49.337,59.019 C49.297,58.900 49.194,58.879 49.046,58.916 C48.788,58.981 48.468,59.031 47.986,58.964 C47.793,58.936 47.660,58.785 47.623,58.644 C47.623,58.644 47.500,58.651 47.412,58.615 C47.283,58.561 47.204,58.461 47.204,58.461 C47.204,58.461 47.279,58.353 47.389,58.304 C47.488,58.263 47.616,58.257 47.616,58.257 C47.616,58.257 47.634,57.969 48.013,57.916 C48.752,57.814 49.452,58.061 49.684,58.130 C49.872,57.697 50.117,56.563 50.006,55.914 C49.890,55.238 49.008,55.423 48.696,54.794 C48.305,54.007 48.391,52.812 47.856,52.710 C46.976,52.541 47.688,53.238 44.583,54.004 C43.632,54.239 42.890,54.106 42.360,54.656 C42.153,54.871 41.791,55.878 41.286,56.531 C40.395,57.682 39.723,58.014 39.723,58.014 C39.850,58.069 40.341,58.294 40.612,58.623 C40.707,58.736 40.744,58.966 40.728,59.093 C40.791,59.149 40.832,59.201 40.868,59.285 C40.907,59.367 40.933,59.459 40.950,59.553 C40.851,59.560 40.758,59.553 40.677,59.523 C40.595,59.495 40.499,59.436 40.499,59.436 C40.393,59.526 40.216,59.565 39.990,59.456 C39.658,59.293 39.488,59.052 39.365,58.875 C39.257,58.720 39.136,58.703 39.054,58.760 C38.972,58.820 38.941,58.925 39.027,59.061 C39.157,59.268 39.339,59.482 39.433,59.948 C39.488,60.219 39.374,60.352 39.290,60.419 C39.290,60.419 39.322,60.493 39.334,60.602 C39.347,60.707 39.316,60.840 39.277,60.927 C39.190,60.903 39.094,60.841 39.021,60.751 C38.948,60.660 38.921,60.547 38.921,60.547 C38.921,60.547 38.576,60.589 38.460,59.948 C38.428,59.769 38.423,59.374 38.456,59.188 C38.503,58.928 38.437,58.871 38.354,58.854 C38.261,58.834 38.193,58.870 38.140,59.032 C38.087,59.196 37.904,59.599 37.751,59.826 C37.566,60.096 37.311,60.141 37.118,60.076 C37.058,60.170 36.981,60.212 36.905,60.243 C36.826,60.273 36.759,60.286 36.686,60.283 C36.658,60.175 36.652,60.075 36.677,59.975 C36.705,59.876 36.759,59.804 36.796,59.745 C36.719,59.549 36.797,59.302 36.949,59.117 C37.103,58.931 37.363,58.767 37.732,58.546 C37.829,58.489 37.936,58.398 37.898,58.281 C37.859,58.162 37.756,58.143 37.609,58.178 C37.351,58.241 37.029,58.295 36.547,58.225 C36.354,58.198 36.222,58.048 36.185,57.906 C36.185,57.906 36.062,57.913 35.974,57.877 C35.845,57.825 35.764,57.723 35.764,57.723 C35.764,57.723 35.841,57.616 35.952,57.567 C36.051,57.525 36.177,57.519 36.177,57.519 C36.177,57.519 36.254,57.215 36.614,57.166 C37.589,57.036 38.432,57.382 38.432,57.382 C38.432,57.382 39.612,56.592 39.980,56.052 C40.272,55.625 40.510,55.117 40.589,54.659 C40.689,54.091 40.529,54.034 40.356,53.903 C40.117,53.723 39.736,53.478 39.264,52.918 C39.021,52.632 38.712,51.971 38.640,51.279 C38.617,51.269 38.594,51.259 38.571,51.250 C38.155,51.079 37.380,50.442 36.854,49.950 C36.899,50.152 36.988,50.554 36.894,51.024 C36.865,51.169 36.679,51.319 36.564,51.376 C36.549,51.460 36.528,51.523 36.479,51.598 C36.430,51.675 36.368,51.747 36.299,51.810 C36.238,51.732 36.195,51.650 36.175,51.565 C36.155,51.478 36.152,51.367 36.152,51.367 C36.020,51.325 35.892,51.194 35.862,50.944 C35.819,50.575 35.929,50.303 36.009,50.103 C36.081,49.926 36.032,49.814 35.938,49.776 C35.844,49.738 35.739,49.771 35.674,49.914 C35.569,50.136 35.488,50.407 35.150,50.739 C34.953,50.931 34.779,50.907 34.679,50.870 C34.679,50.870 34.633,50.938 34.550,51.006 C34.468,51.074 34.341,51.119 34.248,51.133 C34.221,51.046 34.220,50.934 34.255,50.822 C34.291,50.710 34.372,50.628 34.372,50.628 C34.372,50.628 34.152,50.358 34.626,49.913 C34.758,49.790 35.085,49.574 35.259,49.500 C35.500,49.400 35.512,49.314 35.483,49.234 C35.449,49.143 35.382,49.106 35.218,49.148 C35.052,49.191 34.618,49.253 34.345,49.245 C34.020,49.235 33.845,49.043 33.794,48.846 C33.684,48.845 33.607,48.802 33.540,48.752 C33.472,48.702 33.425,48.652 33.390,48.589 C33.463,48.506 33.544,48.447 33.641,48.417 C33.739,48.383 33.827,48.393 33.899,48.392 C34.020,48.222 34.267,48.156 34.506,48.185 C34.742,48.214 35.020,48.344 35.405,48.541 C35.504,48.590 35.639,48.633 35.716,48.538 C35.794,48.439 35.756,48.343 35.646,48.238 C35.454,48.052 35.237,47.809 35.035,47.361 C34.953,47.183 35.008,46.990 35.106,46.884 C35.106,46.884 35.034,46.781 35.018,46.689 C34.991,46.550 35.032,46.429 35.032,46.429 C35.032,46.429 35.165,46.435 35.264,46.503 C35.352,46.564 35.427,46.668 35.427,46.668 C35.427,46.668 35.773,46.531 36.009,46.836 C36.466,47.425 36.489,47.951 36.488,48.165 C36.837,48.619 37.145,48.811 37.515,49.063 C37.820,49.273 38.369,49.442 38.953,49.584 C39.186,49.158 39.537,48.772 39.995,48.318 C40.468,47.849 40.805,47.647 41.157,47.321 C41.578,46.931 41.789,46.533 41.789,46.533 C41.789,46.533 41.067,46.316 40.310,46.551 C40.224,46.410 40.067,46.113 40.206,45.923 C40.772,45.689 41.613,45.728 41.994,45.845 C42.121,45.645 42.379,45.156 42.073,44.891 C41.682,44.552 40.691,44.474 39.981,44.848 C39.806,44.752 39.559,44.407 39.725,44.029 C39.340,43.610 39.593,43.470 39.729,43.412 C40.174,43.218 40.540,43.289 40.951,43.270 C40.958,43.103 40.957,43.012 41.035,42.815 C41.226,42.340 42.455,42.490 42.914,42.487 C43.230,42.486 43.498,42.426 43.770,42.373 C44.136,42.293 44.155,42.663 44.059,42.812 L43.815,43.137 C44.183,43.287 44.565,43.514 44.704,43.916 C44.810,44.226 44.730,44.578 44.810,44.858 C44.900,45.173 45.063,45.281 45.206,45.544 C45.428,45.954 45.471,46.270 45.522,46.706 C45.568,47.081 45.202,47.086 45.062,46.976 C44.984,46.916 44.761,46.624 44.518,46.652 C44.365,46.669 44.245,46.892 44.186,47.054 C44.186,47.054 44.532,47.676 44.645,48.214 C44.741,48.672 44.700,49.046 44.651,49.420 C44.606,49.793 44.227,49.692 44.133,49.546 C44.059,49.431 43.940,49.140 43.695,49.103 C43.436,49.067 43.208,49.351 43.177,49.640 C43.144,49.954 43.177,50.227 43.348,50.475 C44.099,51.583 47.814,49.341 49.101,50.678 C49.218,50.799 49.347,50.970 49.458,51.175 C50.367,51.033 50.817,50.523 50.599,49.688 C50.433,49.050 50.065,48.876 49.112,48.562 C48.118,48.235 47.206,47.740 46.749,47.082 L46.742,47.082 C46.587,46.849 46.474,46.561 46.449,46.330 C46.365,45.637 46.928,45.120 47.513,44.802 C47.485,44.449 47.930,44.082 48.533,43.814 C50.204,43.072 49.653,43.929 49.897,44.169 C50.167,44.432 51.742,43.763 51.742,43.763 C51.973,43.761 52.041,44.267 51.614,44.521 C51.184,44.768 50.720,45.045 50.115,45.260 C49.591,45.446 48.241,45.638 47.746,45.275 C47.583,45.389 47.444,45.489 47.376,45.549 C47.094,45.810 46.968,46.201 47.134,46.543 C47.219,46.717 47.344,46.902 47.467,47.046 C47.798,47.410 48.264,47.690 48.905,47.931 C50.515,48.532 50.848,48.737 51.114,49.251 C51.439,49.893 51.489,50.695 50.885,51.213 C50.556,51.493 50.177,51.737 49.714,51.843 C49.845,52.331 49.893,52.829 50.018,53.274 C50.097,53.498 50.261,53.858 50.525,53.829 C50.766,53.801 50.893,53.554 50.988,53.411 C51.109,53.225 51.441,53.191 51.496,53.563 C51.552,53.936 51.689,54.300 51.689,54.705 C51.684,56.316 51.168,57.586 50.776,58.579 C50.776,58.579 51.236,58.694 51.865,59.127 C52.310,59.433 52.183,59.703 52.166,59.829 C52.228,59.888 52.268,59.939 52.307,60.021 C52.344,60.105 52.371,60.197 52.387,60.289 C52.288,60.298 52.195,60.289 52.114,60.261 C52.032,60.233 51.935,60.174 51.935,60.174 C51.829,60.265 51.652,60.302 51.426,60.193 C51.095,60.031 50.926,59.790 50.802,59.613 C50.694,59.458 50.573,59.441 50.491,59.498 C50.408,59.558 50.378,59.663 50.464,59.799 C50.595,60.005 50.776,60.220 50.870,60.685 C50.925,60.954 50.810,61.090 50.726,61.157 C50.726,61.157 50.760,61.231 50.773,61.337 C50.786,61.445 50.752,61.576 50.715,61.663 C50.627,61.639 50.531,61.579 50.458,61.489 C50.385,61.398 50.360,61.285 50.360,61.285 C50.360,61.285 50.013,61.325 49.899,60.685 C49.865,60.507 49.862,60.111 49.895,59.925 C49.942,59.666 49.875,59.610 49.793,59.592 C49.699,59.571 49.629,59.608 49.577,59.771 C49.526,59.934 49.341,60.335 49.187,60.564 C49.003,60.833 48.749,60.879 48.556,60.814 C48.497,60.907 48.418,60.950 48.341,60.980 C48.264,61.011 48.195,61.023 48.125,61.020 ZM42.423,43.290 C42.166,43.018 41.897,43.217 41.645,43.452 C41.645,43.452 42.190,44.177 42.498,43.958 C42.743,43.780 42.612,43.491 42.423,43.290 ZM49.413,75.529 L49.877,75.601 C49.802,76.212 50.161,76.647 50.664,76.727 C51.175,76.806 51.445,76.567 51.500,76.205 C51.566,75.779 50.889,75.390 50.349,74.868 C49.935,74.473 49.602,73.993 49.689,73.433 C49.814,72.625 50.530,72.261 51.571,72.424 C51.854,72.469 52.424,72.617 52.636,72.688 L52.733,72.499 L53.168,72.567 L52.948,73.991 L52.484,73.919 C52.502,73.367 52.254,73.027 51.752,72.948 C51.231,72.867 51.055,73.257 51.022,73.466 C50.959,73.874 51.484,74.239 51.987,74.687 C52.463,75.121 52.910,75.619 52.814,76.236 C52.681,77.100 51.895,77.415 50.834,77.249 C50.418,77.184 50.132,77.090 49.613,76.874 L49.572,77.013 L49.089,76.937 L49.187,76.612 L49.413,75.529 ZM63.603,62.633 C63.825,62.590 64.123,62.682 64.337,62.903 C64.355,62.922 64.387,62.922 64.408,62.903 C64.622,62.682 64.921,62.590 65.142,62.633 C65.863,62.773 65.932,63.539 65.523,64.137 C65.154,64.677 64.709,65.187 64.373,65.706 C64.037,65.187 63.591,64.677 63.222,64.137 C62.813,63.539 62.883,62.773 63.603,62.633 ZM58.319,65.089 C58.540,65.046 58.839,65.139 59.052,65.359 C59.071,65.378 59.102,65.378 59.124,65.359 C59.338,65.139 59.637,65.046 59.857,65.089 C60.579,65.229 60.648,65.995 60.238,66.594 C59.870,67.133 59.425,67.642 59.089,68.162 C58.753,67.642 58.307,67.133 57.938,66.594 C57.529,65.995 57.598,65.229 58.319,65.089 ZM64.744,46.318 C64.408,45.799 63.963,45.288 63.594,44.749 C63.184,44.151 63.254,43.385 63.975,43.245 C64.195,43.201 64.495,43.295 64.708,43.515 C64.727,43.534 64.757,43.534 64.780,43.515 C64.994,43.295 65.292,43.201 65.513,43.245 C66.235,43.385 66.304,44.151 65.894,44.749 C65.526,45.288 65.080,45.799 64.744,46.318 ZM67.259,51.461 C67.275,51.916 66.667,52.067 66.461,51.621 C66.394,51.475 66.228,51.177 65.979,51.159 C65.823,51.146 65.706,51.291 65.625,51.463 C65.928,52.028 65.964,52.700 65.973,53.011 C65.985,53.488 65.918,53.856 65.820,54.223 C65.721,54.593 65.311,54.497 65.291,54.289 C65.268,54.042 65.174,53.665 64.836,53.588 C64.836,53.588 64.422,54.399 64.031,54.860 C63.577,55.397 62.392,56.289 61.640,56.539 C62.036,56.778 62.394,57.042 62.696,57.329 C63.059,57.675 63.050,57.967 62.972,58.228 C63.101,58.392 63.186,58.550 63.191,58.779 C62.923,58.810 62.662,58.640 62.662,58.640 C62.374,58.813 61.972,58.570 61.790,58.393 C61.656,58.261 61.471,57.916 61.407,57.764 C61.302,57.521 61.180,57.452 61.048,57.517 C60.942,57.567 60.909,57.701 60.986,57.867 C61.108,58.129 61.261,58.450 61.291,58.679 C61.340,59.041 61.225,59.433 60.996,59.559 C60.996,59.559 61.013,59.913 60.889,60.105 C60.688,60.013 60.524,59.606 60.524,59.606 C60.264,59.474 60.081,59.227 60.086,58.752 C60.090,58.447 60.196,58.115 60.289,57.863 C60.367,57.654 60.336,57.536 60.211,57.481 C60.064,57.415 59.973,57.506 59.879,57.691 C59.688,58.058 59.216,58.761 58.552,58.670 C58.390,58.822 58.072,58.881 57.910,58.879 C57.880,58.611 58.042,58.352 58.154,58.224 C58.123,57.672 58.486,57.155 59.501,57.009 C59.698,56.981 59.777,56.839 59.754,56.711 C59.734,56.596 59.628,56.494 59.449,56.507 C59.275,56.519 58.942,56.536 58.533,56.496 C58.141,56.459 57.809,56.292 57.759,55.936 C57.759,55.936 57.465,55.835 57.306,55.635 C57.473,55.498 57.670,55.401 57.866,55.414 C58.005,55.189 58.457,55.211 58.747,55.243 C59.109,55.282 59.833,55.551 60.378,55.804 C60.815,55.581 61.990,54.335 62.252,53.994 C63.074,52.921 63.336,51.825 63.336,51.825 C63.336,51.825 63.086,51.529 62.819,51.560 C62.552,51.590 62.381,51.892 62.324,52.158 C62.245,52.526 61.664,52.587 61.587,52.066 C61.514,51.568 61.461,51.158 61.506,50.531 C61.533,50.163 61.718,49.569 62.077,48.965 C62.500,48.254 63.335,47.705 65.199,47.059 C67.412,46.291 68.626,44.761 68.626,44.761 C68.626,44.761 69.342,44.991 69.573,45.069 C69.824,45.152 70.108,45.246 70.129,45.423 C70.159,45.675 69.956,46.001 69.831,46.167 C69.404,46.729 68.811,47.219 68.390,47.556 C67.261,48.467 66.700,48.493 66.567,49.357 C66.792,49.543 67.058,50.038 67.117,50.276 C67.244,50.785 67.246,51.080 67.259,51.461 ZM62.666,71.251 L62.846,71.686 L62.160,72.034 L62.728,73.420 L64.791,72.561 L64.222,71.175 L63.483,71.421 L63.304,70.985 L64.595,70.468 L65.925,69.894 L66.104,70.329 L65.409,70.681 L66.765,73.984 L67.507,73.748 L67.687,74.183 L66.404,74.697 L65.065,75.275 L64.887,74.840 L65.579,74.478 L64.999,73.067 L62.935,73.927 L63.516,75.338 L64.249,75.105 L64.428,75.540 L63.128,76.061 L61.816,76.629 L61.638,76.193 L62.321,75.836 L60.963,72.533 L60.234,72.774 L60.055,72.339 L61.382,71.807 L62.666,71.251 ZM67.028,69.823 L66.722,69.466 L67.525,68.794 L68.360,68.041 L68.666,68.398 L68.422,68.673 L71.164,70.098 L70.608,68.638 L69.255,67.961 L68.941,68.157 L68.636,67.801 L69.359,67.197 L70.325,66.331 L70.631,66.688 L70.220,67.109 L72.955,68.540 L71.886,65.672 L71.392,66.025 L71.086,65.669 L71.838,65.040 L72.408,64.494 L72.727,64.865 L72.401,65.223 L73.872,69.521 L73.328,69.994 L71.380,69.021 L72.081,71.079 L71.494,71.590 L67.421,69.558 L67.028,69.823 ZM73.721,63.379 L73.215,63.963 L72.833,63.691 L73.695,62.520 L74.251,61.699 L74.874,60.818 L74.691,60.628 L74.963,60.243 L75.266,60.460 L76.209,61.099 L75.942,61.477 L75.305,61.185 L74.494,62.334 L75.668,63.174 L76.273,62.318 L75.885,61.956 L76.151,61.579 L77.481,62.531 L77.215,62.909 L76.725,62.640 L76.120,63.497 L77.216,64.283 C77.278,64.328 77.341,64.372 77.353,64.370 C77.417,64.296 77.489,64.229 77.621,64.040 C77.811,63.773 78.080,63.409 78.101,63.378 C78.179,63.267 78.312,63.078 78.302,63.060 C78.290,63.027 77.870,62.643 77.782,62.569 L78.055,62.184 L79.065,62.908 L77.827,64.661 L77.442,65.191 L76.574,66.452 L76.193,66.179 L76.622,65.456 L73.721,63.379 ZM76.863,58.406 L76.473,59.073 L76.054,58.864 L76.702,57.583 L77.304,56.311 L77.723,56.519 L77.436,57.237 L80.619,58.820 L81.019,58.158 L81.438,58.365 L80.802,59.621 L80.187,60.918 L79.767,60.710 L80.047,59.988 L76.863,58.406 ZM79.981,56.042 C78.907,55.703 77.942,54.498 78.494,52.730 C78.648,52.232 78.899,51.654 79.060,51.331 L78.876,51.213 L79.006,50.798 L79.306,50.894 L80.501,51.231 L80.363,51.673 C79.679,51.558 79.270,52.035 79.035,52.789 C78.845,53.398 79.372,54.403 80.392,54.725 C81.484,55.071 82.454,54.528 82.658,53.874 C82.764,53.534 82.778,53.295 82.748,53.043 L81.718,52.718 L81.419,53.452 L80.973,53.312 L81.427,51.918 L81.788,50.697 L82.234,50.838 L82.091,51.490 C82.218,51.530 82.406,51.600 82.626,51.670 L82.789,51.721 C83.104,51.800 83.405,51.866 83.660,51.784 C83.485,52.345 83.508,52.302 83.428,52.783 C83.350,53.294 83.340,53.484 83.154,54.081 C82.556,55.996 81.184,56.422 79.981,56.042 ZM100.244,42.895 C100.244,44.852 101.621,45.336 102.667,45.336 C103.928,45.336 105.239,44.835 105.239,42.879 L105.239,35.859 L107.247,35.859 L107.247,42.947 C107.247,45.821 105.289,47.074 102.600,47.074 C100.360,47.074 98.235,45.754 98.235,43.364 L98.235,35.859 L100.244,35.859 L100.244,42.895 ZM105.853,56.413 C105.853,57.365 105.371,58.419 104.459,58.769 C105.704,58.937 106.517,60.140 106.517,61.578 C106.517,63.449 104.990,64.703 102.800,64.703 L98.484,64.703 L98.484,53.756 C99.778,53.672 101.073,53.605 102.385,53.605 C104.857,53.605 105.853,54.976 105.853,56.413 ZM100.493,63.065 L102.185,63.065 C103.761,63.065 104.376,62.547 104.376,61.360 C104.376,60.240 103.580,59.689 102.284,59.689 L100.493,59.689 L100.493,63.065 ZM100.493,55.260 L100.493,58.051 L101.936,58.051 C103.247,58.051 103.712,57.483 103.712,56.647 C103.712,55.878 103.165,55.243 102.085,55.243 L100.493,55.260 ZM110.135,58.035 C110.417,57.499 111.115,56.947 111.728,56.947 C112.724,56.947 113.056,57.567 113.056,58.485 C113.056,58.719 113.039,58.970 113.006,59.204 L111.429,59.405 C111.413,59.037 111.446,58.619 111.131,58.619 C110.865,58.619 110.666,58.970 110.351,59.539 L110.351,64.703 L108.343,64.703 L108.343,59.355 C108.343,58.619 108.260,57.867 108.143,57.131 L109.936,57.131 L110.135,58.035 ZM118.633,39.302 L120.641,39.302 L120.641,46.874 L118.633,46.874 L118.633,39.302 ZM117.969,60.090 L117.969,59.522 C117.969,58.703 117.853,58.435 117.007,58.435 C116.674,58.435 116.044,58.452 115.945,58.619 C115.844,58.803 115.862,58.920 115.844,59.204 L114.218,59.355 C114.218,59.237 114.202,59.137 114.202,59.037 C114.202,58.619 114.268,58.269 114.367,57.901 C114.450,57.599 115.646,56.931 117.172,56.931 C118.931,56.931 119.994,57.751 119.994,59.104 L119.994,62.464 C119.994,63.299 120.143,64.135 120.260,64.703 L118.433,64.703 C118.334,64.385 118.318,64.252 118.235,63.817 C117.869,64.352 117.106,64.921 116.144,64.921 C114.832,64.921 113.952,64.118 113.952,63.032 C113.952,62.363 114.085,61.728 114.318,61.444 C114.716,60.909 116.940,60.290 117.969,60.090 ZM116.509,63.416 C116.874,63.416 117.388,63.165 117.969,62.514 L117.969,61.394 C117.172,61.594 116.741,61.728 116.011,62.046 C115.927,62.280 115.911,62.363 115.911,62.614 C115.911,63.048 116.011,63.416 116.509,63.416 ZM132.990,58.017 C133.654,57.265 134.401,56.931 135.264,56.931 C137.836,56.931 138.068,58.535 138.068,60.224 L138.068,61.142 C138.052,62.230 138.036,62.798 137.986,64.703 L135.977,64.703 C136.027,62.497 136.043,62.296 136.043,60.858 C136.043,60.574 136.043,60.240 136.011,59.923 C135.944,58.953 135.745,58.686 135.148,58.686 C134.832,58.686 134.301,58.753 134.202,58.853 C134.085,58.937 133.537,59.338 133.206,59.756 L133.206,64.703 L131.198,64.703 L131.198,59.371 C131.198,58.703 131.081,57.549 130.998,57.131 L132.791,57.131 L132.990,58.017 ZM139.894,59.121 C139.894,57.767 141.024,56.931 142.999,56.931 C143.962,56.931 144.542,57.131 145.588,57.599 L145.356,59.371 C144.343,58.619 143.446,58.553 142.898,58.553 C142.567,58.553 141.903,58.636 141.903,59.054 C141.903,60.190 145.836,60.006 145.836,62.547 C145.836,63.817 144.741,64.921 142.666,64.921 C141.721,64.921 140.758,64.719 139.912,64.185 L140.127,62.514 C141.007,63.032 141.522,63.266 142.616,63.266 C143.579,63.266 143.795,62.965 143.795,62.714 C143.795,61.510 139.894,61.845 139.894,59.121 ZM150.566,56.931 C152.110,56.931 153.405,57.282 153.405,58.503 L153.405,58.937 C153.405,59.070 153.405,59.204 153.388,59.371 L151.446,59.371 C151.446,58.669 151.264,58.535 150.732,58.535 C150.383,58.535 150.218,58.569 150.101,58.619 C149.936,58.686 149.172,59.104 149.172,60.808 C149.172,62.764 150.268,63.199 151.114,63.199 C151.628,63.199 152.226,63.165 153.322,62.230 L153.504,64.101 C152.458,64.719 151.695,64.921 150.766,64.921 C148.575,64.921 147.048,63.433 147.048,60.858 C147.048,58.117 148.874,56.931 150.566,56.931 ZM154.599,37.865 C153.969,37.865 153.421,37.314 153.421,36.645 C153.421,35.976 153.969,35.441 154.599,35.441 C155.246,35.441 155.760,35.960 155.760,36.628 C155.760,37.297 155.246,37.865 154.599,37.865 ZM155.611,46.874 L153.603,46.874 L153.603,39.302 L155.611,39.302 L155.611,46.874 ZM157.239,57.817 C157.819,57.232 158.483,56.931 159.296,56.931 C161.869,56.931 162.101,58.535 162.101,60.224 C162.101,60.524 162.085,60.842 162.085,61.142 C162.068,62.230 162.068,62.798 162.018,64.703 L160.010,64.703 C160.044,62.781 160.076,62.380 160.076,61.360 C160.076,59.221 160.010,58.686 159.180,58.686 C158.865,58.686 158.367,58.753 158.234,58.853 C158.118,58.937 157.587,59.338 157.239,59.756 L157.239,64.703 L155.230,64.703 L155.230,52.502 L157.239,52.502 L157.239,57.817 ZM164.790,36.979 C164.790,36.361 165.222,35.826 165.852,35.826 C166.449,35.826 166.914,36.361 166.914,36.963 C166.914,37.581 166.449,38.082 165.852,38.082 C165.254,38.082 164.790,37.581 164.790,36.979 ZM170.051,41.275 L170.051,44.634 C170.051,45.470 170.200,46.306 170.317,46.874 L168.490,46.874 C168.391,46.556 168.375,46.422 168.292,45.988 C167.926,46.522 167.164,47.092 166.201,47.092 C164.889,47.092 164.009,46.288 164.009,45.202 C164.009,44.534 164.142,43.899 164.375,43.615 C164.773,43.079 166.997,42.461 168.026,42.261 L168.026,41.693 C168.026,40.874 167.910,40.606 167.064,40.606 C166.731,40.606 166.101,40.623 166.002,40.790 C165.901,40.974 165.919,41.091 165.901,41.375 L164.275,41.525 C164.275,41.408 164.259,41.308 164.259,41.208 C164.259,40.790 164.325,40.439 164.424,40.072 C164.507,39.771 165.703,39.102 167.229,39.102 C168.989,39.102 170.051,39.921 170.051,41.275 ZM166.068,44.217 C165.985,44.450 165.968,44.534 165.968,44.785 C165.968,45.219 166.068,45.587 166.566,45.587 C166.931,45.587 167.446,45.336 168.026,44.685 L168.026,43.565 C167.229,43.765 166.798,43.899 166.068,44.217 ZM166.915,61.494 L168.740,56.881 L170.682,61.578 L172.225,57.131 L174.168,57.131 L171.396,64.921 L170.267,64.921 L168.740,61.360 L167.346,64.921 L166.201,64.921 L163.197,57.131 L165.321,57.131 L166.915,61.494 ZM185.703,64.703 L183.695,64.703 L183.695,57.131 L185.703,57.131 L185.703,64.703 Z" class="cls-2"/>
</svg>
